<svg width="175" height="203" viewBox="0 0 175 203" fill="none" xmlns="http://www.w3.org/2000/svg">
<path d="M87.5 189.668C135.825 189.668 175 150.236 175 101.595C175 52.9536 135.825 13.522 87.5 13.522C39.1751 13.522 0 52.9536 0 101.595C0 150.236 39.1751 189.668 87.5 189.668Z" fill="#E4DFEA"/>
<path d="M136.575 37.1689C134.644 37.1721 132.756 36.6025 131.149 35.5322C129.543 34.4619 128.289 32.939 127.548 31.1563C126.807 29.3735 126.612 27.411 126.987 25.5171C127.361 23.6232 128.289 21.883 129.653 20.5167C131.017 19.1504 132.756 18.2194 134.649 17.8416C136.543 17.4638 138.506 17.6561 140.29 18.3942C142.074 19.1323 143.598 20.383 144.671 21.988C145.744 23.5931 146.317 25.4803 146.317 27.4109C146.317 29.9962 145.291 32.4757 143.465 34.3052C141.638 36.1348 139.16 37.1647 136.575 37.1689ZM136.575 18.4949C134.811 18.4918 133.086 19.012 131.617 19.9898C130.149 20.9676 129.004 22.3589 128.326 23.9878C127.649 25.6167 127.47 27.41 127.812 29.1405C128.155 30.8711 129.003 32.4613 130.249 33.7098C131.495 34.9584 133.084 35.8091 134.814 36.1544C136.544 36.4998 138.337 36.3241 139.967 35.6498C141.597 34.9754 142.991 33.8326 143.971 32.3661C144.952 30.8995 145.475 29.175 145.475 27.4109C145.475 25.049 144.538 22.7836 142.869 21.112C141.201 19.4404 138.937 18.4992 136.575 18.4949Z" fill="#C62B27"/>
<path d="M118.823 10.303C117.903 10.303 117.003 10.0301 116.238 9.51895C115.473 9.00778 114.877 8.28124 114.525 7.4312C114.173 6.58116 114.081 5.6458 114.26 4.7434C114.44 3.841 114.883 3.01209 115.533 2.3615C116.184 1.7109 117.013 1.26784 117.915 1.08834C118.818 0.908842 119.753 1.00097 120.603 1.35307C121.453 1.70517 122.18 2.30143 122.691 3.06644C123.202 3.83146 123.475 4.73088 123.475 5.65096C123.475 6.88474 122.985 8.068 122.112 8.94041C121.24 9.81283 120.057 10.303 118.823 10.303ZM118.823 1.87595C118.827 2.29376 118.997 2.69281 119.295 2.98587C119.593 3.27893 119.994 3.44218 120.412 3.43993C120.83 3.43769 121.23 3.27013 121.525 2.97388C121.819 2.67764 121.985 2.27679 121.985 1.85896C121.985 1.44112 121.819 1.04028 121.525 0.744034C121.23 0.447787 120.83 0.280223 120.412 0.277977C119.994 0.275731 119.593 0.438979 119.295 0.73204C118.997 1.0251 118.827 1.42415 118.823 1.84196V1.87595Z" fill="#9D39B5"/>
<path d="M6.3709 73.8459C4.97524 73.8421 3.62407 73.3546 2.54751 72.4664C1.47094 71.5782 0.735565 70.3442 0.466618 68.9747C0.197671 67.6052 0.411787 66.1848 1.0725 64.9554C1.73321 63.7261 2.79966 62.7638 4.09021 62.2324C5.38077 61.701 6.81562 61.6335 8.15039 62.0412C9.48517 62.449 10.6373 63.3068 11.4106 64.4687C12.1839 65.6305 12.5306 67.0245 12.3915 68.4132C12.2524 69.8019 11.6362 71.0995 10.6479 72.0849C10.0858 72.6453 9.41876 73.0893 8.68484 73.3915C7.95092 73.6937 7.16459 73.8481 6.3709 73.8459ZM6.3709 62.6379C5.3435 62.6379 4.3392 62.9428 3.48518 63.514C2.63116 64.0851 1.96583 64.8968 1.57344 65.8464C1.18105 66.7959 1.07925 67.8405 1.28093 68.8479C1.4826 69.8553 1.97869 70.7802 2.70637 71.5055C3.43404 72.2308 4.36058 72.7239 5.36865 72.9223C6.37673 73.1206 7.42099 73.0154 8.36922 72.6199C9.31745 72.2244 10.127 71.5564 10.6953 70.7005C11.2637 69.8446 11.5653 68.8393 11.5619 67.8119C11.5574 66.4381 11.0085 65.1222 10.0355 64.1523C9.06249 63.1825 7.7447 62.6379 6.3709 62.6379Z" fill="#9D39B5"/>
<path d="M16.8709 28.8429C18.3974 28.8429 19.6349 27.6055 19.6349 26.0789C19.6349 24.5524 18.3974 23.3149 16.8709 23.3149C15.3444 23.3149 14.1069 24.5524 14.1069 26.0789C14.1069 27.6055 15.3444 28.8429 16.8709 28.8429Z" fill="#C62B27"/>
<path d="M14.068 39.8648L13.4719 40.4609L22.9705 49.9595L23.5666 49.3634L14.068 39.8648Z" fill="#9D39B5"/>
<path d="M149.509 65.2984L145.075 69.7319L145.671 70.328L150.105 65.8945L149.509 65.2984Z" fill="white"/>
<path d="M141.799 99.6289C138.227 95.36 135.619 90.3699 134.153 84.9999C138.878 89.1799 143.053 93.7639 145.038 101.77L145.838 101.57C143.684 92.8059 138.993 88.0869 133.801 83.5699C132.031 75.9179 132.733 69.0589 129.911 61.9629C126.923 54.3959 120.495 51.7499 114.468 47.9239C113.299 38.4859 111.713 28.7439 100.261 17.8729C97.373 12.0419 90.929 6.78293 74.868 3.27293C65.786 1.30093 46.954 11.6999 46.954 31.5029C46.954 46.3179 46.403 54.6769 34.516 60.1549C22.629 65.6329 22.836 77.2809 27.473 92.6179C32.11 107.955 10.778 128.652 18.636 149.23C31.675 183.207 110.457 174.005 134.197 158.23C157.937 142.455 156.336 117.629 141.799 99.6289ZM107.909 42.6119C101.899 35.9879 103.902 27.5779 101.231 19.9269C110.881 29.7699 112.55 38.6849 113.631 47.3269C111.532 46.0001 109.608 44.4147 107.905 42.6079L107.909 42.6119Z" fill="#C62B27"/>
<path d="M49.3819 84.787C37.5819 92.118 19.0449 140.843 18.5219 151.073C17.1569 161.489 14.6459 186.938 17.3089 203H37.3149C40.0279 196.36 47.2419 160.039 49.6689 150.23C53.2589 140.775 59.8989 102.281 61.0789 92.809C62.3429 82.529 60.6909 77.793 49.3819 84.787Z" fill="#9D39B5"/>
<g style="mix-blend-mode:multiply">
<path d="M43.6351 107.843C36.8931 112.043 31.0451 133.743 29.5791 144.129C28.1131 154.515 24.8601 178.056 25.8711 188.994C26.9331 200.694 39.3541 201.634 39.9781 200.236C41.4951 196.444 44.6301 155.036 45.9951 149.421C48.0011 144.011 51.7251 122 52.3831 116.573C53.0901 110.691 49.9721 103.848 43.6351 107.843Z" fill="#E4DFEA"/>
</g>
<path d="M137.803 203H36.1069C35.2781 202.998 34.4586 202.825 33.7004 202.49C32.9422 202.155 32.2619 201.666 31.7026 201.054C31.1433 200.443 30.7172 199.721 30.4513 198.936C30.1853 198.151 30.0855 197.32 30.1579 196.494L30.7819 189.382H143.129L143.753 196.494C143.825 197.32 143.725 198.151 143.46 198.936C143.194 199.721 142.768 200.443 142.208 201.054C141.649 201.666 140.969 202.155 140.21 202.49C139.452 202.825 138.633 202.998 137.804 203H137.803Z" fill="#632B6B"/>
<path d="M84.939 76.4781C81.2644 76.2835 77.5799 76.5381 73.967 77.2361C66.518 78.6851 55.428 81.3651 48.686 86.2871C40.259 92.5231 44.91 190.612 44.91 190.612H107.371C107.371 190.612 110.471 87.4661 105.146 81.7191C101.658 77.9611 91.51 76.7981 84.939 76.4781Z" fill="white"/>
<path d="M90.4409 76.4139C85.0979 72.4199 80.7669 53.2399 80.1259 42.5709L68.5989 55.7509C73.4359 73.7509 69.8489 73.1609 62.3489 80.3239C54.8489 87.4869 64.3039 100.801 83.3319 96.3689C100.116 92.4419 95.7669 80.4079 90.4409 76.4139Z" fill="#E4DFEA"/>
<path d="M80.1301 42.578L68.6021 55.758C69.499 58.8863 70.1747 62.0738 70.624 65.297C73.0588 64.7878 75.3557 63.7613 77.3591 62.287C79.3625 60.8127 81.0257 58.9251 82.236 56.752C81.1795 52.0868 80.4752 47.3488 80.129 42.578H80.1301Z" fill="#C7BED3"/>
<path d="M62.4831 21.7299C55.1181 33.8139 47.3141 60.8979 70.5901 57.9489C102.377 53.9549 83.8201 -13.2761 62.4831 21.7299Z" fill="#E4DFEA"/>
<path d="M90.033 76.3088C90.033 76.3088 93.522 130.494 94.027 191.539H144.033C144.033 191.539 140.662 125.809 128.696 91.5278C125.055 81.1088 106.513 77.3028 90.033 76.3088Z" fill="#9D39B5"/>
<g style="mix-blend-mode:multiply">
<path d="M139.124 140.523H138.686C134.253 140.523 109.175 151.748 93.501 159.623C93.701 168.05 93.872 176.949 93.973 185.982C104.085 185.527 125.995 181.347 143.001 176.847C142.245 167.253 141.015 154.175 139.124 140.523Z" fill="#E4DFEA"/>
</g>
<path d="M64.583 78.45C64.583 78.45 63.622 130.276 64.583 191.54H29.375C29.375 191.54 35.712 111.48 42.855 93.6519C46.633 84.1129 54.285 80.405 64.583 78.45Z" fill="#9D39B5"/>
<path d="M79.809 9.96601C73.6677 9.51673 67.4944 10.0861 61.539 11.651C60.258 22.235 71.516 25.016 76.839 32.819L79.165 36.19C70.265 31.555 63.0529 22.49 61.9399 19.572L61.1479 19.872C62.3609 23.007 70.418 33.085 80.142 37.585C85.842 45.692 93.979 55.534 99.187 47.36C105.511 37.489 91.304 10.489 79.809 9.96601Z" fill="#D33D3D"/>
<path d="M109.91 93.381C112.927 103.274 130.826 151.409 134.803 155.218C138.78 159.027 169.893 166.173 168.359 156.027C166.825 145.881 132.966 88.6109 120.059 83.5549C107.719 78.5159 106.893 83.454 109.91 93.381Z" fill="#9D39B5"/>
<path d="M80.094 46.442C80.347 43.071 82.605 36.7 86.734 40.542C92.347 45.768 79.336 56.234 80.094 46.442Z" fill="#E4DFEA"/>
<g style="mix-blend-mode:multiply">
<path d="M59.6501 125.961C58.7026 125.178 57.8588 124.277 57.1391 123.281C56.8732 122.854 56.5151 122.491 56.091 122.221C55.6669 121.95 55.1875 121.777 54.6881 121.716C54.1886 121.655 53.6818 121.706 53.2047 121.866C52.7276 122.026 52.2925 122.291 51.9311 122.641L43.1311 131.405C42.7865 131.758 42.5152 132.176 42.3328 132.635C42.1504 133.093 42.0605 133.584 42.0683 134.077C42.0761 134.57 42.1815 135.057 42.3783 135.51C42.5751 135.963 42.8595 136.372 43.2151 136.714L52.5691 146.102C52.8964 146.416 53.1496 146.799 53.3102 147.223C53.4709 147.647 53.5349 148.102 53.4978 148.554C53.4606 149.006 53.3231 149.444 53.0954 149.836C52.8676 150.228 52.5553 150.565 52.1811 150.821C51.3839 151.355 50.654 151.983 50.0071 152.692C48.7709 153.969 47.7984 155.477 47.1451 157.13C46.4918 158.783 46.1704 160.548 46.1993 162.325C46.2282 164.102 46.6069 165.856 47.3137 167.487C48.0205 169.118 49.0415 170.593 50.3186 171.83C51.5956 173.066 53.1036 174.038 54.7565 174.691C56.4094 175.345 58.1748 175.666 59.9518 175.637C61.7289 175.608 63.4829 175.23 65.1136 174.523C66.7444 173.816 68.2199 172.795 69.4561 171.518C70.0337 170.941 70.5532 170.309 71.0071 169.63C71.269 169.264 71.6088 168.96 72.0021 168.741C72.3953 168.521 72.8323 168.391 73.2816 168.361C73.7309 168.33 74.1813 168.399 74.6007 168.564C75.0201 168.728 75.3979 168.983 75.7071 169.31L85.0611 178.681C85.7499 179.4 86.6958 179.816 87.6912 179.838C88.6866 179.86 89.65 179.487 90.3701 178.799L99.1901 170.032C99.538 169.677 99.803 169.248 99.9659 168.779C100.129 168.309 100.186 167.808 100.133 167.314C100.08 166.819 99.9177 166.343 99.6586 165.918C99.3995 165.493 99.0496 165.131 98.6341 164.858C97.9815 164.404 97.3722 163.89 96.8141 163.324C95.5213 162.079 94.4948 160.584 93.7967 158.93C93.0986 157.276 92.7434 155.498 92.7528 153.703C92.7621 151.908 93.1358 150.133 93.8511 148.487C94.5663 146.84 95.6084 145.356 96.9141 144.124C99.4704 141.95 102.745 140.808 106.099 140.92C109.453 141.033 112.644 142.391 115.049 144.731C115.673 145.351 116.237 146.028 116.734 146.753C117.002 147.155 117.354 147.495 117.765 147.75C118.175 148.004 118.636 148.167 119.116 148.228C119.595 148.289 120.082 148.245 120.544 148.101C121.005 147.957 121.43 147.716 121.79 147.393L130.655 138.578C131.346 137.857 131.723 136.893 131.705 135.894C131.686 134.896 131.273 133.946 130.555 133.252L121.336 123.881C121.011 123.566 120.761 123.182 120.602 122.759C120.443 122.335 120.38 121.881 120.417 121.43C120.454 120.979 120.59 120.542 120.816 120.149C121.042 119.757 121.352 119.42 121.724 119.162C122.523 118.624 123.258 117.996 123.915 117.291C125.206 115.937 126.201 114.33 126.84 112.572C127.478 110.814 127.745 108.943 127.623 107.076C127.501 105.21 126.994 103.389 126.133 101.728C125.272 100.068 124.076 98.6038 122.62 97.429C121.165 96.2541 119.482 95.3938 117.677 94.9024C115.872 94.411 113.985 94.2991 112.135 94.5739C110.285 94.8487 108.512 95.5041 106.928 96.4988C105.344 97.4935 103.983 98.8059 102.932 100.353C102.67 100.719 102.33 101.023 101.937 101.243C101.544 101.462 101.107 101.592 100.658 101.622C100.208 101.653 99.7578 101.584 99.3385 101.419C98.9191 101.255 98.5413 101 98.2321 100.673L88.8951 91.285C88.5525 90.9277 88.1428 90.6416 87.6894 90.4431C87.2359 90.2446 86.7477 90.1376 86.2529 90.1283C85.758 90.1191 85.2661 90.2076 84.8056 90.389C84.345 90.5703 83.9248 90.8408 83.5691 91.185L74.7541 99.949C74.4092 100.304 74.1469 100.731 73.9857 101.2C73.8246 101.668 73.7685 102.166 73.8216 102.658C73.8747 103.15 74.0356 103.625 74.2928 104.048C74.5501 104.471 74.8974 104.832 75.3101 105.106C75.955 105.576 76.5634 106.095 77.1301 106.657C79.6894 108.975 81.2232 112.214 81.3941 115.663C81.5649 119.111 80.3588 122.487 78.0411 125.046C75.7234 127.605 72.4839 129.139 69.0353 129.31C65.5866 129.481 62.2114 128.275 59.6521 125.957L59.6501 125.961Z" fill="#E4DFEA"/>
</g>
<path d="M133.991 138.972L124.791 147.787C124.432 148.111 124.008 148.353 123.547 148.499C123.087 148.644 122.6 148.688 122.12 148.629C121.641 148.57 121.18 148.408 120.768 148.156C120.357 147.903 120.004 147.564 119.735 147.163C119.246 146.426 118.681 145.743 118.05 145.124C115.544 142.84 112.26 141.601 108.87 141.66C105.481 141.719 102.242 143.072 99.8177 145.443C97.3935 147.813 95.9676 151.02 95.8321 154.408C95.6966 157.796 96.8618 161.107 99.0889 163.663C99.6098 164.22 100.172 164.737 100.772 165.209C101.172 165.497 101.503 165.87 101.743 166.301C101.984 166.731 102.126 167.209 102.162 167.701C102.197 168.193 102.124 168.686 101.948 169.147C101.772 169.607 101.497 170.023 101.143 170.366L91.9909 179.13C91.2708 179.818 90.3074 180.191 89.312 180.169C88.3166 180.147 87.3707 179.731 86.6819 179.012L85.3819 177.647L77.6819 169.641C77.6154 169.561 77.5356 169.493 77.4459 169.441C77.1293 169.157 76.756 168.944 76.3507 168.815C75.9455 168.687 75.5175 168.646 75.0952 168.695C74.6729 168.745 74.2659 168.883 73.9013 169.102C73.5366 169.32 73.2225 169.614 72.9799 169.963C72.4804 170.645 71.9161 171.277 71.2949 171.851C69.4628 173.604 67.1672 174.795 64.6794 175.285C62.1917 175.775 59.6157 175.542 57.2559 174.615C55.3167 173.863 53.5837 172.662 52.1999 171.109C50.0072 168.587 48.8293 165.34 48.8947 161.999C48.9601 158.657 50.2641 155.459 52.5539 153.025C53.2376 152.322 53.9945 151.695 54.8119 151.154C55.1942 150.909 55.5177 150.582 55.7592 150.198C56.0007 149.813 56.1544 149.38 56.2091 148.929C56.2638 148.479 56.2184 148.021 56.0759 147.59C55.9334 147.159 55.6975 146.764 55.3849 146.435L46.5029 137.149C46.1587 136.793 45.8882 136.373 45.7068 135.913C45.5255 135.452 45.4369 134.96 45.4462 134.465C45.4555 133.97 45.5625 133.482 45.761 133.029C45.9595 132.575 46.2456 132.166 46.6029 131.823L55.7379 123.059C56.0993 122.709 56.5345 122.444 57.0115 122.284C57.4886 122.124 57.9954 122.073 58.4949 122.134C58.9943 122.195 59.4737 122.368 59.8978 122.639C60.3219 122.909 60.68 123.272 60.9459 123.699C61.9737 125.223 63.3069 126.518 64.861 127.5C66.4152 128.482 68.1564 129.131 69.9743 129.405C71.7923 129.679 73.6473 129.573 75.422 129.092C77.1966 128.612 78.8522 127.768 80.2837 126.615C81.7153 125.461 82.8916 124.023 83.7382 122.391C84.5849 120.759 85.0833 118.969 85.2019 117.134C85.3206 115.299 85.0569 113.46 84.4275 111.733C83.7982 110.005 82.8169 108.427 81.5459 107.099C81.0717 106.604 80.5587 106.148 80.0119 105.734L79.7759 105.549C79.3744 105.259 79.0416 104.885 78.8011 104.452C78.5607 104.019 78.4185 103.539 78.3847 103.045C78.3509 102.551 78.4264 102.056 78.6056 101.594C78.7849 101.133 79.0636 100.717 79.4219 100.375L82.7929 97.088L88.5059 91.61C89.2288 90.9214 90.1951 90.5472 91.1933 90.5693C92.1914 90.5914 93.1402 91.008 93.8319 91.728L98.7199 96.784L100.658 98.806L102.815 101.064C103.124 101.391 103.502 101.646 103.921 101.81C104.341 101.975 104.791 102.044 105.24 102.013C105.69 101.983 106.127 101.853 106.52 101.634C106.913 101.414 107.253 101.11 107.515 100.744C108.014 100.062 108.579 99.4296 109.2 98.856C110.031 98.0541 110.966 97.3682 111.981 96.817C114.768 95.2185 118.04 94.6847 121.191 95.3144C124.342 95.9442 127.158 97.6948 129.116 100.242C131.075 102.789 132.044 105.96 131.843 109.167C131.643 112.373 130.287 115.399 128.026 117.682C127.342 118.385 126.585 119.012 125.768 119.553C125.388 119.8 125.067 120.127 124.827 120.512C124.587 120.896 124.434 121.329 124.38 121.779C124.325 122.229 124.37 122.685 124.511 123.116C124.651 123.547 124.885 123.941 125.195 124.272L134.195 133.643C134.873 134.377 135.233 135.349 135.195 136.347C135.158 137.346 134.726 138.288 133.995 138.969L133.991 138.972Z" fill="#C62B27"/>
<path d="M98.919 96.7859L75.319 168.752C74.9 168.807 74.4967 168.948 74.1342 169.165C73.7718 169.382 73.4579 169.672 73.212 170.016C72.7126 170.698 72.1483 171.33 71.527 171.904C69.6949 173.657 67.3993 174.848 64.9116 175.338C62.4238 175.828 59.8478 175.595 57.488 174.668L72.337 129.495C75.18 129.466 77.9365 128.513 80.191 126.781C81.6706 125.644 82.8941 124.209 83.7818 122.568C84.6695 120.926 85.2014 119.117 85.3429 117.256C85.4845 115.396 85.2324 113.526 84.6032 111.77C83.9739 110.013 82.9817 108.409 81.691 107.062C81.2168 106.567 80.7038 106.11 80.157 105.697L83.005 97.0509L88.718 91.5729C89.441 90.8843 90.4072 90.5101 91.4054 90.5322C92.4036 90.5543 93.3523 90.9709 94.044 91.6909L98.919 96.7859Z" fill="#D33D3D"/>
<path d="M111.973 96.8201L85.394 177.72L77.694 169.714C77.6276 169.634 77.5477 169.567 77.458 169.514L100.7 98.8291L102.857 101.087C103.166 101.414 103.544 101.669 103.963 101.834C104.383 101.998 104.833 102.067 105.283 102.036C105.732 102.006 106.169 101.876 106.562 101.657C106.955 101.437 107.295 101.133 107.557 100.767C108.056 100.085 108.621 99.4526 109.242 98.8791C110.056 98.0737 110.975 97.3812 111.973 96.8201Z" fill="#D33D3D"/>
<path d="M91.038 166.612C87.667 169.258 83.938 169.056 80.285 168.095C78.734 167.695 77.622 167.117 76.695 166.882H76.51C74.622 166.393 71.454 167.017 69.162 166.782C66.87 166.547 69.432 169.243 72.668 169.982C69.904 173.1 63.668 175.274 71.859 179.504C75.6049 181.513 79.8388 182.433 84.0807 182.159C88.3225 181.885 92.4028 180.428 95.859 177.953L91.038 166.612Z" fill="#E4DFEA"/>
<path d="M88.9439 161.405C97.3709 155.27 134.837 134.439 140.344 133.933C145.851 133.427 174.726 152.033 167.192 158.995C159.658 165.957 103.147 182.152 96.4059 180.046C90.3429 178.158 82.5229 166.124 88.9439 161.405Z" fill="#9D39B5"/>
<path d="M64.8581 28.287C64.5998 27.7024 64.2144 27.1828 63.7301 26.7659C63.2457 26.349 62.6745 26.0454 62.0581 25.877C61.7346 25.7863 61.4 25.7409 61.0641 25.742C58.3171 25.742 55.7551 28.489 55.3841 31.842C55.3502 32.0711 55.3502 32.3039 55.3841 32.533C55.3039 33.9431 55.7294 35.3355 56.5841 36.46C56.9682 36.9368 57.4528 37.3231 58.0034 37.5912C58.5539 37.8593 59.1568 38.0026 59.7691 38.011C62.5331 38.011 65.0951 35.264 65.4691 31.893C65.6247 30.6571 65.4136 29.4028 64.8621 28.286L64.8581 28.287ZM55.8071 31.894C56.1781 28.742 58.5371 26.164 61.0821 26.164C61.3377 26.1684 61.592 26.202 61.8401 26.264L55.7741 32.332C55.8041 32.188 55.8146 32.0408 55.8071 31.894ZM65.0431 31.894C64.6721 35.046 62.3131 37.624 59.7511 37.624C59.2012 37.6219 58.6591 37.4948 58.1657 37.2523C57.6723 37.0097 57.2405 36.6581 56.9031 36.224L64.5381 28.589C64.9907 29.6156 65.1596 30.7448 65.0271 31.859L65.0431 31.894Z" fill="white"/>
<path d="M75.9411 27.2759C75.5669 26.7974 75.0885 26.4105 74.5423 26.1447C73.9961 25.8789 73.3965 25.7411 72.7891 25.7419C70.0421 25.7419 67.4801 28.4889 67.1091 31.8599C66.9464 33.0724 67.1334 34.3061 67.6481 35.4159C67.8843 35.997 68.2474 36.5179 68.7107 36.9408C69.174 37.3636 69.7259 37.6776 70.3261 37.8599C70.6657 37.9587 71.0174 38.0098 71.3711 38.012C74.1351 38.012 76.6971 35.2649 77.0511 31.9119C77.0673 31.6539 77.0673 31.395 77.0511 31.137C77.1516 29.7589 76.7581 28.3902 75.9411 27.2759ZM67.5141 31.894C67.8851 28.742 70.2441 26.1639 72.7891 26.1639C73.3327 26.1638 73.8691 26.2883 74.3571 26.5279C74.8451 26.7675 75.2717 27.1157 75.6041 27.5459L67.9861 35.146C67.5309 34.1265 67.3675 33.0007 67.5141 31.894ZM71.4581 37.594C71.1846 37.5876 70.9129 37.548 70.6491 37.476L76.7671 31.3579V31.864C76.2951 35.016 73.9361 37.594 71.3741 37.594H71.4581Z" fill="white"/>
</svg>
