<svg width="17" height="17" viewBox="0 0 17 17" fill="none" xmlns="http://www.w3.org/2000/svg">
<mask id="mask0_1_6654" style="mask-type:luminance" maskUnits="userSpaceOnUse" x="0" y="0" width="17" height="17">
<path d="M17 0H0V17H17V0Z" fill="white"/>
</mask>
<g mask="url(#mask0_1_6654)">
<path d="M15.349 5.59722H15.149L12.716 1.34122C12.6247 1.17965 12.5021 1.03786 12.3554 0.924099C12.2087 0.810341 12.0409 0.726886 11.8617 0.67859C11.6824 0.630294 11.4954 0.618121 11.3114 0.642779C11.1275 0.667436 10.9502 0.728432 10.79 0.822218L0.442041 6.84822C0.12057 7.03868 -0.113227 7.3478 -0.208993 7.70898C-0.304758 8.07015 -0.254829 8.4545 -0.0699593 8.77922L0.106041 9.08622L0.399041 9.59822L1.87104 12.1682V14.8202C1.87131 15.1965 2.02089 15.5573 2.28695 15.8233C2.55301 16.0894 2.91378 16.239 3.29004 16.2392H15.35C15.7263 16.239 16.0871 16.0894 16.3531 15.8233C16.6192 15.5573 16.7688 15.1965 16.769 14.8202V7.02022C16.7694 6.83349 16.733 6.64852 16.6618 6.47589C16.5906 6.30326 16.4861 6.14636 16.3542 6.01419C16.2223 5.88201 16.0656 5.77714 15.8931 5.7056C15.7207 5.63405 15.5358 5.59722 15.349 5.59722ZM1.87004 10.7402L1.59904 10.2672L1.87004 10.1092V10.7402ZM1.87004 7.01722V7.64822L0.542041 8.42322C0.450233 8.26039 0.426039 8.06803 0.474668 7.88754C0.523297 7.70705 0.640859 7.55288 0.802041 7.45822L1.88904 6.82522C1.87835 6.88838 1.872 6.95319 1.87004 7.01722ZM13.156 3.53822L14.335 5.59722H9.61904L13.156 3.53822ZM11.147 1.43822C11.2257 1.39185 11.3129 1.36169 11.4034 1.34949C11.4939 1.3373 11.5859 1.34333 11.674 1.36722C11.7632 1.39123 11.8468 1.43267 11.9199 1.48914C11.993 1.5456 12.0543 1.61598 12.1 1.69622L5.40004 5.59622H4.00004L11.147 1.43822ZM8.25504 11.6282C8.25504 11.7224 8.21764 11.8127 8.15106 11.8792C8.08449 11.9458 7.99419 11.9832 7.90004 11.9832H4.35304C4.3049 11.9858 4.25675 11.9785 4.21151 11.9618C4.16628 11.9452 4.12491 11.9195 4.08993 11.8863C4.05495 11.8531 4.0271 11.8132 4.00806 11.7689C3.98902 11.7246 3.97921 11.6769 3.97921 11.6287C3.97921 11.5805 3.98902 11.5328 4.00806 11.4885C4.0271 11.4442 4.05495 11.4043 4.08993 11.3711C4.12491 11.338 4.16628 11.3123 4.21151 11.2956C4.25675 11.2789 4.3049 11.2717 4.35304 11.2742H7.90104C7.99485 11.2745 8.08473 11.3119 8.15106 11.3782C8.2174 11.4445 8.25478 11.5344 8.25504 11.6282ZM9.31904 14.1112H4.35304C4.3049 14.1138 4.25675 14.1065 4.21151 14.0898C4.16628 14.0732 4.12491 14.0475 4.08993 14.0143C4.05495 13.9811 4.0271 13.9412 4.00806 13.8969C3.98902 13.8526 3.97921 13.8049 3.97921 13.7567C3.97921 13.7085 3.98902 13.6608 4.00806 13.6165C4.0271 13.5722 4.05495 13.5323 4.08993 13.4991C4.12491 13.466 4.16628 13.4403 4.21151 13.4236C4.25675 13.4069 4.3049 13.3997 4.35304 13.4022H9.32004C9.4108 13.407 9.49626 13.4465 9.5588 13.5124C9.62134 13.5784 9.65621 13.6658 9.65621 13.7567C9.65621 13.8476 9.62134 13.935 9.5588 14.001C9.49626 14.0669 9.4108 14.1064 9.32004 14.1112H9.31904ZM13.177 14.1112C12.946 14.1115 12.7182 14.0573 12.512 13.9532C12.3058 14.0573 12.078 14.1115 11.847 14.1112C11.6562 14.1184 11.4659 14.087 11.2875 14.0189C11.1091 13.9508 10.9462 13.8474 10.8087 13.715C10.6711 13.5825 10.5617 13.4236 10.487 13.2479C10.4123 13.0722 10.3738 12.8832 10.3738 12.6922C10.3738 12.5013 10.4123 12.3123 10.487 12.1365C10.5617 11.9608 10.6711 11.8019 10.8087 11.6695C10.9462 11.537 11.1091 11.4336 11.2875 11.3655C11.4659 11.2975 11.6562 11.2661 11.847 11.2732C12.078 11.273 12.3058 11.3271 12.512 11.4312C12.7182 11.3271 12.946 11.273 13.177 11.2732C13.3679 11.2661 13.5582 11.2975 13.7366 11.3655C13.915 11.4336 14.0779 11.537 14.2154 11.6695C14.3529 11.8019 14.4623 11.9608 14.5371 12.1365C14.6118 12.3123 14.6503 12.5013 14.6503 12.6922C14.6503 12.8832 14.6118 13.0722 14.5371 13.2479C14.4623 13.4236 14.3529 13.5825 14.2154 13.715C14.0779 13.8474 13.915 13.9508 13.7366 14.0189C13.5582 14.087 13.3679 14.1184 13.177 14.1112Z" fill="#EC4148"/>
</g>
</svg>
