<svg width="15" height="15" viewBox="0 0 15 15" fill="none" xmlns="http://www.w3.org/2000/svg">
<mask id="mask0_1_6665" style="mask-type:luminance" maskUnits="userSpaceOnUse" x="0" y="0" width="15" height="15">
<path d="M15 0H0V15H15V0Z" fill="white"/>
</mask>
<g mask="url(#mask0_1_6665)">
<path d="M10.364 -0.0522461V2.62375H13.04L10.364 -0.0522461Z" fill="#EC4148"/>
<path d="M4.16113 7.0507H5.71813L4.94313 4.9917L4.16113 7.0507Z" fill="#EC4148"/>
<path d="M9.92404 3.50394C9.86626 3.50394 9.80905 3.49256 9.75566 3.47045C9.70228 3.44834 9.65377 3.41593 9.61292 3.37507C9.57206 3.33421 9.53965 3.28571 9.51754 3.23232C9.49542 3.17894 9.48404 3.12172 9.48404 3.06394V-0.310059H1.70904C1.59235 -0.310059 1.48043 -0.263702 1.39792 -0.181186C1.3154 -0.0986696 1.26904 0.0132461 1.26904 0.129941V14.2719C1.26904 14.3886 1.3154 14.5006 1.39792 14.5831C1.48043 14.6656 1.59235 14.7119 1.70904 14.7119H12.858C12.9747 14.7119 13.0867 14.6656 13.1692 14.5831C13.2517 14.5006 13.298 14.3886 13.298 14.2719V3.50394H9.92404ZM7.57404 4.67794H8.01404V4.23794C8.01404 4.12125 8.0604 4.00933 8.14292 3.92681C8.22543 3.8443 8.33735 3.79794 8.45404 3.79794C8.57074 3.79794 8.68265 3.8443 8.76517 3.92681C8.84769 4.00933 8.89404 4.12125 8.89404 4.23794V4.67794H9.33404C9.45074 4.67794 9.56265 4.7243 9.64517 4.80681C9.72769 4.88933 9.77404 5.00125 9.77404 5.11794C9.77404 5.23464 9.72769 5.34655 9.64517 5.42907C9.56265 5.51158 9.45074 5.55794 9.33404 5.55794H8.89404V5.99794C8.89404 6.11464 8.84769 6.22655 8.76517 6.30907C8.68265 6.39158 8.57074 6.43794 8.45404 6.43794C8.33735 6.43794 8.22543 6.39158 8.14292 6.30907C8.0604 6.22655 8.01404 6.11464 8.01404 5.99794V5.55794H7.57404C7.45735 5.55794 7.34543 5.51158 7.26292 5.42907C7.1804 5.34655 7.13404 5.23464 7.13404 5.11794C7.13404 5.00125 7.1804 4.88933 7.26292 4.80681C7.34543 4.7243 7.45735 4.67794 7.57404 4.67794ZM6.94504 9.05094C6.89046 9.07184 6.83226 9.08165 6.77384 9.07981C6.71542 9.07797 6.65796 9.0645 6.6048 9.04021C6.55164 9.01591 6.50386 8.98126 6.46424 8.93829C6.42462 8.89532 6.39396 8.84489 6.37404 8.78994L6.04604 7.92194H3.82504L3.49404 8.79094C3.4461 8.88962 3.36303 8.96683 3.26111 9.00743C3.15919 9.04803 3.04578 9.04909 2.94312 9.0104C2.84046 8.97172 2.75596 8.89608 2.70618 8.79831C2.6564 8.70055 2.64494 8.58772 2.67404 8.48194L4.43404 3.85394V3.84394C4.47484 3.74345 4.54468 3.65742 4.63464 3.59686C4.72461 3.53629 4.83059 3.50394 4.93904 3.50394C5.04738 3.50386 5.15328 3.53606 5.24323 3.59644C5.33318 3.65682 5.40309 3.74264 5.44404 3.84294V3.85494L7.20104 8.48294C7.24226 8.59208 7.23844 8.71312 7.19043 8.81944C7.14243 8.92577 7.05416 9.00868 6.94504 9.04994V9.05094ZM11.098 12.8899H7.57404C7.45735 12.8899 7.34543 12.8436 7.26292 12.7611C7.1804 12.6786 7.13404 12.5666 7.13404 12.4499C7.13404 12.3332 7.1804 12.2213 7.26292 12.1388C7.34543 12.0563 7.45735 12.0099 7.57404 12.0099H11.095C11.2117 12.0099 11.3237 12.0563 11.4062 12.1388C11.4887 12.2213 11.535 12.3332 11.535 12.4499C11.535 12.5666 11.4887 12.6786 11.4062 12.7611C11.3237 12.8436 11.2117 12.8899 11.095 12.8899H11.098ZM11.098 11.1299H7.57404C7.45735 11.1299 7.34543 11.0836 7.26292 11.0011C7.1804 10.9186 7.13404 10.8066 7.13404 10.6899C7.13404 10.5732 7.1804 10.4613 7.26292 10.3788C7.34543 10.2963 7.45735 10.2499 7.57404 10.2499H11.095C11.2117 10.2499 11.3237 10.2963 11.4062 10.3788C11.4887 10.4613 11.535 10.5732 11.535 10.6899C11.535 10.8066 11.4887 10.9186 11.4062 11.0011C11.3237 11.0836 11.2117 11.1299 11.095 11.1299H11.098Z" fill="#EC4148"/>
</g>
</svg>
