<svg width="17" height="17" viewBox="0 0 17 17" fill="none" xmlns="http://www.w3.org/2000/svg">
<mask id="mask0_1_6673" style="mask-type:luminance" maskUnits="userSpaceOnUse" x="0" y="0" width="17" height="17">
<path d="M17 0H0V17H17V0Z" fill="white"/>
</mask>
<g mask="url(#mask0_1_6673)">
<path d="M16.7229 6.22182C16.6376 6.00897 16.4931 5.82501 16.3065 5.69174C16.1198 5.55846 15.8989 5.48145 15.6699 5.46982L11.2629 4.82982L9.29191 0.840824C9.21063 0.626768 9.0698 0.440436 8.88605 0.303821C8.7023 0.167206 8.48331 0.0860125 8.25491 0.0698242C8.02651 0.0860125 7.80752 0.167206 7.62377 0.303821C7.44002 0.440436 7.29919 0.626768 7.21791 0.840824L5.24791 4.83382L0.84191 5.46982C0.613163 5.48093 0.39237 5.55726 0.205606 5.6898C0.0188407 5.82235 -0.126096 6.00557 -0.21209 6.21782C-0.268289 6.44062 -0.25934 6.67488 -0.186305 6.89274C-0.113271 7.1106 0.0207781 7.30291 0.19991 7.44682L3.38891 10.5548L2.63591 14.9438C2.58906 15.1291 2.5847 15.3226 2.62314 15.5097C2.66158 15.6969 2.74184 15.873 2.85791 16.0248C2.94964 16.1322 3.06404 16.2178 3.19288 16.2755C3.32171 16.3333 3.46175 16.3617 3.60291 16.3588C3.85264 16.3509 4.09669 16.2823 4.31391 16.1588L8.25491 14.0868L12.1969 16.1588C12.4141 16.2823 12.6582 16.351 12.9079 16.3588C13.0491 16.3617 13.1891 16.3333 13.3179 16.2755C13.4468 16.2178 13.5612 16.1322 13.6529 16.0248C13.769 15.873 13.8492 15.6969 13.8877 15.5097C13.9261 15.3226 13.9218 15.1291 13.8749 14.9438L13.1219 10.5548L16.3109 7.44682C16.4893 7.30343 16.623 7.11201 16.6962 6.89514C16.7693 6.67827 16.779 6.44499 16.7239 6.22282L16.7229 6.22182Z" fill="#EC4148"/>
</g>
</svg>
