<svg width="17" height="17" viewBox="0 0 17 17" fill="none" xmlns="http://www.w3.org/2000/svg">
<mask id="mask0_1_6693" style="mask-type:luminance" maskUnits="userSpaceOnUse" x="0" y="0" width="17" height="17">
<path d="M17 0H0V17H17V0Z" fill="white"/>
</mask>
<g mask="url(#mask0_1_6693)">
<path d="M13.729 15.2363L11.558 13.0613C11.4765 12.9802 11.3695 12.9297 11.2552 12.9182C11.1408 12.9067 11.0259 12.935 10.93 12.9983C10.3146 13.4039 9.60914 13.6525 8.87542 13.7223C8.14171 13.7922 7.40205 13.6811 6.72119 13.3989C6.04033 13.1167 5.439 12.6719 4.96984 12.1035C4.50068 11.5351 4.17797 10.8603 4.02996 10.1383C4.00694 10.0255 3.94572 9.92415 3.85664 9.85128C3.76755 9.77841 3.65605 9.7385 3.54096 9.73829H0.45796C0.386931 9.73778 0.316607 9.75241 0.251673 9.7812C0.186739 9.80999 0.128685 9.85229 0.0813769 9.90527C0.034069 9.95826 -0.00140665 10.0207 -0.0226873 10.0885C-0.043968 10.1563 -0.0505652 10.2278 -0.0420396 10.2983C0.218223 12.3636 1.22299 14.263 2.78383 15.6403C4.34467 17.0175 6.35434 17.7781 8.43596 17.7793C10.3362 17.7853 12.1831 17.1512 13.679 15.9793C13.7345 15.9357 13.7802 15.8809 13.8131 15.8184C13.8459 15.7559 13.8651 15.6871 13.8695 15.6166C13.8738 15.5461 13.8632 15.4756 13.8383 15.4095C13.8134 15.3434 13.7747 15.2834 13.725 15.2333L13.729 15.2363Z" fill="#EC4148"/>
<path d="M7.76896 0.8793C7.71623 0.831848 7.654 0.796161 7.58641 0.77461C7.51883 0.753058 7.44743 0.746134 7.37696 0.7543C5.49193 0.991174 3.73945 1.84899 2.39605 3.19239C1.05265 4.53579 0.194835 6.28827 -0.0420396 8.1733C-0.0505652 8.24382 -0.043968 8.31534 -0.0226873 8.38311C-0.00140665 8.45088 0.034069 8.51334 0.0813769 8.56632C0.128685 8.61931 0.186739 8.6616 0.251673 8.69039C0.316607 8.71919 0.386931 8.73381 0.45796 8.7333H3.53296C3.64805 8.73309 3.75955 8.69319 3.84864 8.62031C3.93772 8.54744 3.99894 8.44607 4.02196 8.3333C4.19945 7.46749 4.62726 6.67285 5.2523 6.04799C5.87734 5.42313 6.6721 4.99554 7.53796 4.8183C7.65073 4.79528 7.7521 4.73406 7.82498 4.64498C7.89785 4.55589 7.93775 4.44439 7.93796 4.3293V1.2543C7.938 1.18338 7.92295 1.11327 7.89381 1.04862C7.86467 0.983963 7.82211 0.926246 7.76896 0.8793Z" fill="#EC4148"/>
<path d="M9.50288 0.754103C9.43237 0.745577 9.36084 0.752175 9.29307 0.773455C9.2253 0.794736 9.16285 0.830212 9.10986 0.877519C9.05688 0.924827 9.01458 0.982882 8.98579 1.04782C8.957 1.11275 8.94237 1.18307 8.94288 1.2541V4.3291C8.94309 4.4442 8.983 4.55569 9.05587 4.64478C9.12874 4.73387 9.23012 4.79508 9.34288 4.8181C10.0649 4.96611 10.7396 5.28882 11.3081 5.75798C11.8765 6.22715 12.3213 6.82847 12.6035 7.50933C12.8857 8.1902 12.9967 8.92985 12.9269 9.66357C12.8571 10.3973 12.6085 11.1027 12.2029 11.7181C12.1396 11.8141 12.1113 11.9289 12.1228 12.0433C12.1342 12.1577 12.1848 12.2646 12.2659 12.3461L14.4409 14.5211C14.5346 14.6146 14.6615 14.6671 14.7939 14.6671H14.8249C14.8955 14.6627 14.9643 14.6435 15.0269 14.6105C15.0894 14.5776 15.1443 14.5318 15.1879 14.4761C16.3598 12.9803 16.9939 11.1334 16.9879 9.2331C16.9868 7.15071 16.2258 5.14029 14.8477 3.57915C13.4696 2.01801 11.5691 1.01349 9.50288 0.754103Z" fill="#EC4148"/>
<path d="M8.44005 6.74219C7.94678 6.74219 7.46459 6.88846 7.05445 7.1625C6.64432 7.43655 6.32466 7.82606 6.13589 8.28177C5.94713 8.73749 5.89774 9.23895 5.99397 9.72274C6.0902 10.2065 6.32773 10.6509 6.67652 10.9997C7.02531 11.3485 7.4697 11.586 7.95349 11.6823C8.43728 11.7785 8.93874 11.7291 9.39446 11.5403C9.85018 11.3516 10.2397 11.0319 10.5137 10.6218C10.7878 10.2116 10.934 9.72945 10.934 9.23619C10.9325 8.57522 10.6692 7.94179 10.2018 7.47441C9.73445 7.00704 9.10101 6.74377 8.44005 6.74219Z" fill="#EC4148"/>
</g>
</svg>
