<svg width="17" height="17" viewBox="0 0 17 17" fill="#EC4148" xmlns="http://www.w3.org/2000/svg">
<mask id="mask0_1_6702" style="mask-type:luminance" maskUnits="userSpaceOnUse" x="0" y="0" width="17" height="17">
<path d="M17 0H0V17H17V0Z" fill="white"/>
</mask>
<g mask="url(#mask0_1_6702)">
<g opacity="1">
<path d="M5.66107 10.8908C5.66107 9.2908 7.73307 9.0378 7.73307 8.1568C7.73327 8.07075 7.71553 7.98561 7.68098 7.9068C7.64643 7.828 7.59583 7.75726 7.53241 7.69911C7.46899 7.64095 7.39414 7.59666 7.31264 7.56906C7.23114 7.54146 7.14478 7.53115 7.05907 7.5388C6.89291 7.55359 6.73297 7.60916 6.59342 7.70056C6.45387 7.79197 6.33903 7.91639 6.25907 8.0628L5.65907 7.6628C5.79855 7.39427 6.0096 7.16957 6.26886 7.01355C6.52812 6.85753 6.8255 6.77629 7.12807 6.7788C7.31052 6.76201 7.49447 6.78337 7.66822 6.8415C7.84197 6.89963 8.00173 6.99328 8.13735 7.11648C8.27296 7.23968 8.38146 7.38974 8.45596 7.55713C8.53046 7.72452 8.56932 7.90558 8.57007 8.0888C8.57007 9.5118 6.58607 9.7548 6.57007 10.5888H8.63807V11.2818H5.69907C5.67805 11.1524 5.66536 11.0218 5.66107 10.8908ZM9.08907 9.6488L10.9991 6.8488H11.9531V9.4738H12.5271V10.1418H11.9531V11.2838H11.1601V10.1428H9.08907V9.6488ZM11.1611 9.4738V8.0988C11.1629 7.94434 11.1733 7.79011 11.1921 7.6368H11.1791C11.1185 7.77846 11.0452 7.91434 10.9601 8.0428L9.93807 9.4618V9.4738H11.1611ZM15.0701 9.2388L14.9161 9.7908C14.506 11.3104 13.5223 12.6116 12.172 13.4204C10.8218 14.2292 9.21033 14.4824 7.67707 14.1268C6.23192 13.7667 4.97282 12.8809 4.14557 11.6425C3.31832 10.404 2.98229 8.90169 3.20307 7.4288L4.11907 7.6848C4.16747 7.69835 4.21859 7.6989 4.26727 7.68641C4.31596 7.67391 4.36049 7.64881 4.39638 7.61363C4.43227 7.57844 4.45826 7.53442 4.47173 7.486C4.48519 7.43758 4.48565 7.38646 4.47307 7.3378L3.47307 3.4598C3.46065 3.41102 3.43557 3.36638 3.40036 3.3304C3.36516 3.29442 3.32109 3.26836 3.27259 3.25487C3.22409 3.24137 3.1729 3.24092 3.12417 3.25355C3.07544 3.26618 3.03091 3.29145 2.99507 3.3268L0.139074 6.1278C0.103153 6.1629 0.077112 6.20685 0.0635698 6.25522C0.0500276 6.30359 0.049462 6.35467 0.06193 6.40332C0.074398 6.45198 0.0994598 6.49649 0.134594 6.53239C0.169728 6.56828 0.213696 6.59429 0.262074 6.6078L1.26207 6.8858C0.903119 8.86866 1.30568 10.9139 2.38929 12.6129C3.4729 14.3118 5.15775 15.5392 7.10707 16.0498C9.15972 16.5532 11.3278 16.2344 13.1487 15.1615C14.9695 14.0885 16.2989 12.3463 16.8531 10.3068L17.0001 9.7788C17.0102 9.74249 17.0131 9.70452 17.0086 9.66709C17.004 9.62966 16.9921 9.5935 16.9735 9.56069C16.9549 9.52789 16.93 9.49908 16.9003 9.47593C16.8705 9.45278 16.8364 9.43574 16.8001 9.4258L15.4231 9.0408C15.3868 9.03061 15.3489 9.02768 15.3116 9.03218C15.2742 9.03667 15.238 9.0485 15.2052 9.06699C15.1725 9.08548 15.1436 9.11026 15.1204 9.13992C15.0972 9.16957 15.0801 9.20251 15.0701 9.2388ZM16.6991 6.8228L15.2531 7.0108C15.2158 7.01561 15.1798 7.02773 15.1471 7.04648C15.1145 7.06522 15.0859 7.09022 15.063 7.12004C15.04 7.14986 15.0232 7.18391 15.0134 7.22025C15.0037 7.25659 15.0012 7.29449 15.0061 7.3318L15.0631 7.7708C15.0679 7.80811 15.08 7.84412 15.0988 7.87674C15.1175 7.90936 15.1425 7.93796 15.1723 7.96091C15.2021 7.98385 15.2362 8.00069 15.2725 8.01045C15.3089 8.02021 15.3468 8.02271 15.3841 8.0178L16.8301 7.8298C16.8674 7.82499 16.9034 7.81286 16.936 7.79412C16.9686 7.77537 16.9972 7.75037 17.0202 7.72055C17.0431 7.69073 17.06 7.65668 17.0697 7.62034C17.0795 7.58401 17.082 7.5461 17.0771 7.5088L17.0201 7.0698C17.0153 7.03248 17.0031 6.99648 16.9844 6.96386C16.9656 6.93123 16.9407 6.90263 16.9108 6.87968C16.881 6.85674 16.847 6.8399 16.8106 6.83014C16.7743 6.82038 16.7364 6.81788 16.6991 6.8228ZM15.5861 4.0908L14.3161 4.8068C14.2833 4.82521 14.2544 4.84992 14.2312 4.8795C14.208 4.90908 14.1908 4.94296 14.1807 4.97918C14.1705 5.01541 14.1677 5.05328 14.1722 5.09062C14.1767 5.12796 14.1886 5.16404 14.2071 5.1968L14.4241 5.5818C14.4425 5.61459 14.4672 5.64344 14.4968 5.66667C14.5264 5.68991 14.5602 5.70708 14.5965 5.7172C14.6327 5.72733 14.6706 5.73021 14.7079 5.72568C14.7452 5.72115 14.7813 5.70929 14.8141 5.6908L16.0841 4.9748C16.1169 4.95638 16.1457 4.93167 16.1689 4.90209C16.1922 4.87251 16.2094 4.83864 16.2195 4.80241C16.2296 4.76618 16.2325 4.72831 16.228 4.69097C16.2234 4.65363 16.2116 4.61755 16.1931 4.5848L15.9761 4.1988C15.9576 4.16608 15.9328 4.13734 15.9032 4.1142C15.8736 4.09107 15.8397 4.074 15.8035 4.06397C15.7672 4.05394 15.7294 4.05114 15.6921 4.05575C15.6548 4.06035 15.6188 4.07226 15.5861 4.0908ZM13.5311 1.9748L12.6211 3.1138C12.5743 3.17295 12.5529 3.24815 12.5613 3.32305C12.5697 3.39796 12.6074 3.46651 12.6661 3.5138L13.0121 3.7898C13.0712 3.83652 13.1464 3.85801 13.2213 3.84958C13.2962 3.84115 13.3648 3.8035 13.4121 3.7448L14.3221 2.6058C14.3688 2.54665 14.3903 2.47145 14.3819 2.39654C14.3734 2.32164 14.3358 2.25309 14.2771 2.2058L13.9311 1.9298C13.8719 1.88307 13.7967 1.86159 13.7218 1.87002C13.6469 1.87844 13.5784 1.9161 13.5311 1.9748ZM10.8321 0.782797L10.4161 2.1828C10.4053 2.21884 10.4018 2.25666 10.4057 2.29407C10.4096 2.33149 10.4208 2.36777 10.4387 2.40084C10.4566 2.43391 10.4809 2.46311 10.5102 2.48679C10.5394 2.51046 10.573 2.52813 10.6091 2.5388L11.0331 2.6648C11.0691 2.67555 11.1069 2.67908 11.1443 2.67519C11.1818 2.67131 11.218 2.66008 11.2511 2.64215C11.2842 2.62422 11.3134 2.59995 11.3371 2.57072C11.3607 2.54149 11.3784 2.50787 11.3891 2.4718L11.8051 1.0718C11.8158 1.03575 11.8194 0.997936 11.8155 0.960522C11.8116 0.923107 11.8004 0.886826 11.7824 0.853758C11.7645 0.820689 11.7402 0.791481 11.711 0.767808C11.6818 0.744134 11.6481 0.72646 11.6121 0.715797L11.1881 0.589797C11.152 0.579047 11.1142 0.575514 11.0768 0.5794C11.0394 0.583286 11.0031 0.594514 10.97 0.612442C10.937 0.63037 10.9078 0.654645 10.8841 0.683877C10.8604 0.713109 10.8427 0.746724 10.8321 0.782797ZM7.88407 0.687797L8.02107 2.1398C8.02446 2.17733 8.03523 2.21381 8.05276 2.24717C8.0703 2.28052 8.09425 2.31008 8.12324 2.33415C8.15223 2.35822 8.1857 2.37632 8.22171 2.38741C8.25772 2.39851 8.29556 2.40238 8.33307 2.3988L8.77307 2.3568C8.81051 2.35329 8.84689 2.34243 8.88013 2.32484C8.91337 2.30725 8.94282 2.28328 8.96678 2.2543C8.99074 2.22532 9.00876 2.1919 9.01979 2.15595C9.03082 2.12 9.03466 2.08223 9.03107 2.0448L8.89407 0.592797C8.89056 0.555357 8.8797 0.518976 8.86212 0.485738C8.84453 0.452499 8.82056 0.423056 8.79158 0.399092C8.7626 0.375128 8.72918 0.357114 8.69323 0.346081C8.65728 0.335049 8.61951 0.331214 8.58207 0.334797L8.14207 0.376797C8.06665 0.383894 7.99712 0.420627 7.94875 0.478934C7.90038 0.537242 7.87712 0.612358 7.88407 0.687797ZM5.11407 1.7048L5.78507 2.9988C5.80238 3.03218 5.8261 3.06182 5.85488 3.08602C5.88366 3.11022 5.91692 3.12851 5.95278 3.13984C5.98863 3.15117 6.02636 3.15532 6.06382 3.15205C6.10128 3.14879 6.13773 3.13817 6.17107 3.1208L6.56407 2.9208C6.59745 2.90349 6.62709 2.87977 6.65129 2.85099C6.6755 2.82221 6.69379 2.78895 6.70512 2.7531C6.71645 2.71724 6.7206 2.67951 6.71733 2.64205C6.71406 2.60459 6.70344 2.56815 6.68607 2.5348L6.01507 1.2378C5.99776 1.20442 5.97404 1.17478 5.94527 1.15058C5.91649 1.12638 5.88322 1.10809 5.84737 1.09675C5.81152 1.08542 5.77379 1.08127 5.73633 1.08454C5.69887 1.08781 5.66242 1.09843 5.62907 1.1158L5.23607 1.3158C5.20231 1.3331 5.17232 1.35695 5.14786 1.38595C5.1234 1.41496 5.10495 1.44854 5.0936 1.48474C5.08224 1.52095 5.07821 1.55905 5.08172 1.59683C5.08524 1.63461 5.09623 1.67131 5.11407 1.7048Z" fill="#EC4148"/>
</g>
</g>
</svg>
