<svg width="42" height="15" viewBox="0 0 42 15" fill="none" xmlns="http://www.w3.org/2000/svg">
<path d="M2.35705 7.74877L5.33505 4.53477C5.44151 4.41725 5.50047 4.26434 5.50047 4.10577C5.50047 3.9472 5.44151 3.79429 5.33505 3.67677C5.28477 3.6204 5.22314 3.57529 5.15421 3.54441C5.08527 3.51352 5.01059 3.49756 4.93505 3.49756C4.85951 3.49756 4.78483 3.51352 4.71589 3.54441C4.64696 3.57529 4.58533 3.6204 4.53505 3.67677L1.16105 7.31777C1.05843 7.43237 1.00037 7.58 0.997432 7.7338C0.994495 7.8876 1.04688 8.03734 1.14505 8.15577L4.53305 11.8228C4.58333 11.8791 4.64496 11.9243 4.71389 11.9551C4.78283 11.986 4.85751 12.002 4.93305 12.002C5.00859 12.002 5.08327 11.986 5.15221 11.9551C5.22114 11.9243 5.28277 11.8791 5.33305 11.8228C5.43951 11.7053 5.49847 11.5523 5.49847 11.3938C5.49847 11.2352 5.43951 11.0823 5.33305 10.9648L2.35705 7.74877Z" fill="black"/>
<path d="M13.1461 9.6C13.1461 9.256 13.2181 8.884 13.3621 8.484H14.8141C14.7661 8.628 14.7261 8.792 14.6941 8.976C14.6701 9.16 14.6581 9.332 14.6581 9.492C14.6581 9.78 14.7261 10.04 14.8621 10.272C14.9981 10.504 15.1901 10.688 15.4381 10.824C15.6941 10.952 15.9861 11.016 16.3141 11.016C16.6261 11.016 16.9021 10.952 17.1421 10.824C17.3901 10.688 17.5821 10.492 17.7181 10.236C17.8621 9.972 17.9341 9.66 17.9341 9.3V5.64C17.9341 5.272 17.8501 4.976 17.6821 4.752C17.5221 4.528 17.2901 4.416 16.9861 4.416C16.6901 4.416 16.4621 4.524 16.3021 4.74C16.1421 4.948 16.0621 5.232 16.0621 5.592V6.78H14.6341V5.532C14.6341 5.228 14.5461 4.988 14.3701 4.812C14.2021 4.636 13.9541 4.548 13.6261 4.548H12.9781V3.3H13.6141C14.0621 3.3 14.4261 3.376 14.7061 3.528C14.9861 3.68 15.1861 3.924 15.3061 4.26H15.3541C15.5061 3.924 15.7381 3.668 16.0501 3.492C16.3701 3.316 16.7381 3.228 17.1541 3.228C17.6021 3.228 17.9981 3.32 18.3421 3.504C18.6941 3.68 18.9621 3.94 19.1461 4.284C19.3381 4.62 19.4341 5.016 19.4341 5.472V9.372C19.4341 9.924 19.2981 10.416 19.0261 10.848C18.7541 11.272 18.3821 11.604 17.9101 11.844C17.4381 12.084 16.9061 12.204 16.3141 12.204C15.7301 12.204 15.1941 12.092 14.7061 11.868C14.2261 11.644 13.8461 11.336 13.5661 10.944C13.2861 10.544 13.1461 10.096 13.1461 9.6ZM20.4415 9.66C20.4415 9.268 20.5095 8.92 20.6455 8.616H22.0495C22.0015 8.776 21.9655 8.924 21.9415 9.06C21.9175 9.188 21.9055 9.34 21.9055 9.516C21.9055 9.812 21.9735 10.072 22.1095 10.296C22.2535 10.52 22.4455 10.696 22.6855 10.824C22.9335 10.952 23.2095 11.016 23.5135 11.016C23.8175 11.016 24.0855 10.952 24.3175 10.824C24.5575 10.696 24.7415 10.512 24.8695 10.272C25.0055 10.024 25.0735 9.732 25.0735 9.396C25.0735 9.06 25.0055 8.76 24.8695 8.496C24.7415 8.224 24.5575 8.016 24.3175 7.872C24.0855 7.72 23.8175 7.644 23.5135 7.644H22.9135V6.468H23.7175C24.0855 6.468 24.3575 6.376 24.5335 6.192C24.7175 6.008 24.8095 5.76 24.8095 5.448C24.8095 5.176 24.7255 4.952 24.5575 4.776C24.3975 4.592 24.1615 4.48 23.8495 4.44V3.3C24.3455 3.332 24.7695 3.44 25.1215 3.624C25.4815 3.808 25.7535 4.044 25.9375 4.332C26.1295 4.62 26.2255 4.948 26.2255 5.316C26.2255 5.732 26.1255 6.088 25.9255 6.384C25.7335 6.672 25.4695 6.876 25.1335 6.996V7.044C25.5815 7.236 25.9335 7.54 26.1895 7.956C26.4535 8.372 26.5855 8.88 26.5855 9.48C26.5855 9.992 26.4495 10.456 26.1775 10.872C25.9135 11.288 25.5455 11.616 25.0735 11.856C24.6095 12.088 24.0895 12.204 23.5135 12.204C22.9295 12.204 22.4015 12.092 21.9295 11.868C21.4655 11.644 21.1015 11.34 20.8375 10.956C20.5735 10.564 20.4415 10.132 20.4415 9.66ZM27.3673 9.288C27.3673 9.016 27.3993 8.76 27.4633 8.52C27.5353 8.272 27.6193 8.052 27.7153 7.86H29.1553C28.9633 8.332 28.8673 8.792 28.8673 9.24C28.8673 9.576 28.9313 9.88 29.0593 10.152C29.1873 10.416 29.3713 10.628 29.6113 10.788C29.8593 10.94 30.1393 11.016 30.4513 11.016C30.7793 11.016 31.0633 10.94 31.3033 10.788C31.5433 10.628 31.7273 10.416 31.8553 10.152C31.9833 9.88 32.0473 9.576 32.0473 9.24C32.0473 8.832 31.9913 8.476 31.8793 8.172C31.7673 7.86 31.6273 7.592 31.4593 7.368C31.2913 7.144 31.0553 6.872 30.7513 6.552C30.4953 6.28 30.2793 6.012 30.1033 5.748C29.9273 5.484 29.7793 5.164 29.6593 4.788C29.5473 4.404 29.4913 3.952 29.4913 3.432H30.9913C30.9913 3.96 31.0753 4.408 31.2433 4.776C31.4193 5.144 31.6713 5.508 31.9993 5.868C32.3593 6.268 32.6393 6.604 32.8393 6.876C33.0393 7.14 33.2073 7.476 33.3433 7.884C33.4873 8.284 33.5593 8.752 33.5593 9.288C33.5593 9.84 33.4233 10.34 33.1513 10.788C32.8793 11.236 32.5033 11.584 32.0233 11.832C31.5513 12.08 31.0233 12.204 30.4393 12.204C29.8473 12.204 29.3153 12.08 28.8433 11.832C28.3793 11.584 28.0153 11.24 27.7513 10.8C27.4953 10.352 27.3673 9.848 27.3673 9.288ZM34.6991 9.156V5.7C34.6991 4.956 34.9231 4.392 35.3711 4.008C35.8271 3.624 36.4951 3.432 37.3751 3.432H40.1711V4.644H37.4591C37.0351 4.644 36.7191 4.736 36.5111 4.92C36.3111 5.104 36.2111 5.388 36.2111 5.772V7.116H36.2351C36.4191 6.828 36.6951 6.6 37.0631 6.432C37.4311 6.256 37.8271 6.168 38.2511 6.168C38.7471 6.168 39.2031 6.292 39.6191 6.54C40.0431 6.788 40.3791 7.14 40.6271 7.596C40.8751 8.044 40.9991 8.56 40.9991 9.144C40.9991 9.752 40.8631 10.288 40.5911 10.752C40.3191 11.216 39.9431 11.576 39.4631 11.832C38.9911 12.08 38.4551 12.204 37.8551 12.204C37.2471 12.204 36.7031 12.08 36.2231 11.832C35.7431 11.576 35.3671 11.216 35.0951 10.752C34.8311 10.288 34.6991 9.756 34.6991 9.156ZM39.4871 9.204C39.4871 8.836 39.4191 8.512 39.2831 8.232C39.1471 7.952 38.9551 7.74 38.7071 7.596C38.4591 7.444 38.1751 7.368 37.8551 7.368C37.5271 7.368 37.2351 7.444 36.9791 7.596C36.7231 7.74 36.5231 7.952 36.3791 8.232C36.2351 8.504 36.1631 8.828 36.1631 9.204C36.1631 9.572 36.2351 9.892 36.3791 10.164C36.5231 10.436 36.7231 10.648 36.9791 10.8C37.2351 10.944 37.5271 11.016 37.8551 11.016C38.1671 11.016 38.4471 10.944 38.6951 10.8C38.9431 10.648 39.1351 10.436 39.2711 10.164C39.4151 9.892 39.4871 9.572 39.4871 9.204Z" fill="#2A3331"/>
</svg>
