<svg width="20" height="20" viewBox="0 0 20 20" fill="none" xmlns="http://www.w3.org/2000/svg">
<path d="M20 10C20 8.02219 19.4135 6.08879 18.3147 4.4443C17.2159 2.79981 15.6541 1.51809 13.8268 0.761209C11.9996 0.00433284 9.98891 -0.193701 8.0491 0.192152C6.10929 0.578004 4.32746 1.53041 2.92894 2.92894C1.53041 4.32746 0.578004 6.10929 0.192152 8.0491C-0.193701 9.98891 0.00433284 11.9996 0.761209 13.8268C1.51809 15.6541 2.79981 17.2159 4.4443 18.3147C6.08879 19.4135 8.02219 20 10 20H10.176V12.213H8.02701V9.71301H10.175V7.867C10.1313 7.43049 10.1835 6.98969 10.3282 6.57552C10.4728 6.16134 10.7062 5.78381 11.0122 5.46939C11.3181 5.15497 11.6891 4.91128 12.0992 4.75539C12.5093 4.59951 12.9485 4.53521 13.386 4.567C14.0293 4.56528 14.6723 4.59867 15.312 4.667V6.9H14C12.963 6.9 12.762 7.393 12.762 8.116V9.709H15.242L14.919 12.209H12.76V19.609C14.8457 19.0092 16.6798 17.7476 17.9857 16.0143C19.2917 14.2811 19.9986 12.1702 20 10Z" fill="#4267B2"/>
</svg>
