<svg width="18" height="18" viewBox="0 0 18 18" fill="none" xmlns="http://www.w3.org/2000/svg">
<mask id="mask0_1_6258" style="mask-type:luminance" maskUnits="userSpaceOnUse" x="0" y="0" width="18" height="18">
<path d="M11 0H7C3.13401 0 0 3.13401 0 7V11C0 14.866 3.13401 18 7 18H11C14.866 18 18 14.866 18 11V7C18 3.13401 14.866 0 11 0Z" fill="white"/>
</mask>
<g mask="url(#mask0_1_6258)">
<path d="M8.99999 4.44434C8.76536 4.4446 8.54041 4.53793 8.37449 4.70384C8.20858 4.86975 8.11525 5.0947 8.11499 5.32934V6.63734H9.88499V5.32934C9.88473 5.0947 9.7914 4.86975 9.62549 4.70384C9.45957 4.53793 9.23463 4.4446 8.99999 4.44434Z" fill="black"/>
<path d="M14.3361 2.21024C13.6354 1.50951 12.8035 0.953658 11.8879 0.574424C10.9724 0.195189 9.99109 1.04417e-08 9.0001 0C8.00911 -1.04417e-08 7.02783 0.195189 6.11228 0.574424C5.19673 0.953658 4.36483 1.50951 3.6641 2.21024C2.96337 2.91098 2.40752 3.74287 2.02828 4.65842C1.64905 5.57397 1.45386 6.55526 1.45386 7.54624C1.45386 8.53723 1.64905 9.51851 2.02828 10.4341C2.40752 11.3496 2.96337 12.1815 3.6641 12.8822L8.6271 17.8452C8.67605 17.8943 8.73419 17.9332 8.79819 17.9597C8.8622 17.9863 8.93081 18 9.0001 18C9.06939 18 9.138 17.9863 9.20201 17.9597C9.26601 17.9332 9.32415 17.8943 9.3731 17.8452L14.3361 12.8822C15.0369 12.1815 15.5927 11.3496 15.972 10.4341C16.3512 9.51853 16.5464 8.53724 16.5464 7.54624C16.5464 6.55525 16.3512 5.57396 15.972 4.6584C15.5927 3.74285 15.0369 2.91096 14.3361 2.21024ZM11.0671 11.2592H6.9341C6.8613 11.2593 6.78927 11.2443 6.72255 11.2152C6.65582 11.1861 6.59586 11.1434 6.54644 11.09C6.49702 11.0365 6.45922 10.9734 6.43541 10.9046C6.4116 10.8358 6.4023 10.7628 6.4081 10.6902L6.6901 7.12324C6.69843 7.01804 6.73815 6.91776 6.80411 6.83539C6.87008 6.75302 6.95926 6.69235 7.0601 6.66124V5.32924C7.0601 4.81486 7.26444 4.32154 7.62817 3.95781C7.99189 3.59408 8.48521 3.38974 8.9996 3.38974C9.51399 3.38974 10.0073 3.59408 10.371 3.95781C10.7348 4.32154 10.9391 4.81486 10.9391 5.32924V6.66124C11.0399 6.69235 11.1291 6.75302 11.1951 6.83539C11.2611 6.91776 11.3008 7.01804 11.3091 7.12324L11.5891 10.6622C11.5994 10.737 11.5935 10.813 11.572 10.8853C11.5504 10.9575 11.5136 11.0243 11.4641 11.0812C11.4145 11.138 11.3533 11.1836 11.2847 11.2148C11.2161 11.2461 11.1415 11.2622 11.0661 11.2622L11.0671 11.2592Z" fill="black"/>
</g>
</svg>
