<svg width="18" height="18" viewBox="0 0 18 18" fill="none" xmlns="http://www.w3.org/2000/svg">
<mask id="mask0_1_6201" style="mask-type:luminance" maskUnits="userSpaceOnUse" x="0" y="0" width="18" height="18">
<path d="M18 0H0V18H18V0Z" fill="white"/>
</mask>
<g mask="url(#mask0_1_6201)">
<path d="M4.62305 16.5942H2.13405C2.0263 16.5949 1.91977 16.5713 1.82244 16.5251C1.72511 16.4789 1.63951 16.4112 1.57205 16.3272C1.50284 16.2421 1.45353 16.1426 1.42775 16.036C1.40197 15.9295 1.40036 15.8185 1.42305 15.7112C1.7857 14.0033 2.71311 12.4674 4.05568 11.3513C5.39825 10.2351 7.07769 9.6038 8.82305 9.55916C8.88305 9.55916 8.94205 9.55916 9.00205 9.55916C9.06205 9.55916 9.12305 9.55916 9.18305 9.55916C10.0512 9.57777 10.91 9.7431 11.7231 10.0482C11.8095 10.0806 11.9014 10.0957 11.9937 10.0926C12.0859 10.0895 12.1766 10.0683 12.2607 10.0301C12.3447 9.99193 12.4204 9.93758 12.4834 9.87016C12.5465 9.80275 12.5956 9.72357 12.6281 9.63716C12.6605 9.55075 12.6756 9.4588 12.6725 9.36655C12.6694 9.27431 12.6482 9.18358 12.61 9.09954C12.5718 9.0155 12.5175 8.93981 12.4501 8.87677C12.3826 8.81374 12.3035 8.7646 12.2171 8.73216C12.1004 8.68816 11.9834 8.64716 11.8661 8.60916C12.6705 8.00813 13.2653 7.16904 13.5661 6.21093C13.8669 5.25282 13.8583 4.22434 13.5416 3.27137C13.2249 2.3184 12.6162 1.48934 11.8019 0.901795C10.9875 0.314248 10.0088 -0.00195312 9.00455 -0.00195312C8.00035 -0.00195312 7.02164 0.314248 6.20726 0.901795C5.39287 1.48934 4.78417 2.3184 4.4675 3.27137C4.15083 4.22434 4.14226 5.25282 4.44301 6.21093C4.74377 7.16904 5.33857 8.00813 6.14305 8.60916C4.61799 9.10993 3.25163 10.0034 2.18137 11.1997C1.11111 12.396 0.374653 13.853 0.046054 15.4242C-0.0193814 15.735 -0.0146617 16.0565 0.0598691 16.3653C0.1344 16.6741 0.276865 16.9624 0.476889 17.2092C0.676914 17.4559 0.92946 17.655 1.21614 17.7918C1.50281 17.9287 1.8164 17.9998 2.13405 18.0002H4.62305C4.8095 18.0002 4.98831 17.9261 5.12015 17.7943C5.25199 17.6624 5.32605 17.4836 5.32605 17.2972C5.32605 17.1107 5.25199 16.9319 5.12015 16.8001C4.98831 16.6682 4.8095 16.5942 4.62305 16.5942ZM5.62305 4.78216C5.62287 4.12168 5.8165 3.47566 6.17992 2.92416C6.54335 2.37266 7.06061 1.93991 7.66761 1.67955C8.2746 1.41918 8.94466 1.34264 9.59473 1.45941C10.2448 1.57618 10.8463 1.88112 11.3248 2.33646C11.8032 2.7918 12.1375 3.37751 12.2863 4.02101C12.4351 4.66452 12.3918 5.33754 12.1618 5.95667C11.9317 6.5758 11.5251 7.11383 10.9922 7.50408C10.4594 7.89434 9.82374 8.11968 9.16405 8.15216L9.00005 8.15016H8.83505C7.97023 8.10685 7.15503 7.73319 6.5577 7.10628C5.96038 6.47937 5.62653 5.64707 5.62505 4.78116L5.62305 4.78216Z" fill="#C62B27"/>
<path d="M17.462 12.1151C17.3112 11.7829 17.068 11.5011 16.7614 11.3034C16.4548 11.1057 16.0978 11.0004 15.733 11.0001H13.533C13.1535 10.9954 12.7817 11.1067 12.4673 11.3192C12.1529 11.5317 11.911 11.8353 11.774 12.1891C11.737 12.2891 11.692 12.4061 11.645 12.5471H7.04497C6.95164 12.5475 6.85932 12.5666 6.77345 12.6031C6.68759 12.6397 6.6099 12.6931 6.54497 12.7601L5.33097 14.0081C5.20181 14.1391 5.12939 14.3157 5.12939 14.4996C5.12939 14.6836 5.20181 14.8602 5.33097 14.9911L6.56097 16.2431C6.62615 16.3096 6.70395 16.3625 6.78981 16.3985C6.87566 16.4346 6.96785 16.4532 7.06097 16.4531H9.35197C9.53842 16.4531 9.71723 16.3791 9.84907 16.2472C9.9809 16.1154 10.055 15.9366 10.055 15.7501C10.055 15.5637 9.9809 15.3849 9.84907 15.2531C9.71723 15.1212 9.53842 15.0471 9.35197 15.0471H7.36097L6.81897 14.4951L7.34097 13.9571H12.175C12.3325 13.9577 12.4857 13.9051 12.6096 13.8078C12.7336 13.7106 12.8211 13.5743 12.858 13.4211C12.9191 13.175 12.9963 12.9332 13.089 12.6971C13.1248 12.6089 13.1872 12.5339 13.2674 12.4825C13.3476 12.4311 13.4418 12.4058 13.537 12.4101H15.731C15.8246 12.408 15.9168 12.4333 15.9962 12.4828C16.0756 12.5324 16.1388 12.6041 16.178 12.6891C16.4374 13.2518 16.579 13.8617 16.594 14.4811C16.5806 15.1108 16.4401 15.7312 16.181 16.3051C16.1435 16.3911 16.0816 16.4641 16.0031 16.5153C15.9245 16.5665 15.8327 16.5936 15.739 16.5931H13.519C13.4213 16.5912 13.3264 16.5607 13.2459 16.5055C13.1654 16.4502 13.1029 16.3726 13.066 16.2821C12.9751 16.0549 12.9022 15.8208 12.848 15.5821C12.8265 15.4923 12.7875 15.4076 12.7333 15.3328C12.6791 15.2581 12.6107 15.1947 12.532 15.1464C12.4533 15.098 12.3659 15.0657 12.2747 15.0511C12.1835 15.0366 12.0903 15.0402 12.0005 15.0616C11.9106 15.0831 11.8259 15.1221 11.7512 15.1763C11.6764 15.2305 11.613 15.2989 11.5647 15.3776C11.5164 15.4563 11.484 15.5437 11.4695 15.6349C11.4549 15.7262 11.4585 15.8193 11.48 15.9091C11.5517 16.2161 11.6473 16.5171 11.766 16.8091C11.9067 17.159 12.1483 17.4591 12.4602 17.6712C12.772 17.8833 13.1399 17.9978 13.517 18.0001H15.741C16.1081 18.0003 16.4673 17.8933 16.7744 17.6922C17.0816 17.4911 17.3233 17.2047 17.47 16.8681C17.8067 16.1156 17.987 15.3025 18 14.4781C17.9846 13.6619 17.8014 12.8576 17.462 12.1151Z" fill="#C62B27"/>
<path d="M15.152 15.1873C15.5402 15.1873 15.855 14.8725 15.855 14.4843C15.855 14.096 15.5402 13.7812 15.152 13.7812C14.7637 13.7812 14.449 14.096 14.449 14.4843C14.449 14.8725 14.7637 15.1873 15.152 15.1873Z" fill="#C62B27"/>
</g>
</svg>
