<svg width="18" height="18" viewBox="0 0 18 18" fill="none" xmlns="http://www.w3.org/2000/svg">
<mask id="mask0_1_6268" style="mask-type:luminance" maskUnits="userSpaceOnUse" x="0" y="0" width="18" height="18">
<path d="M18 0H0V18H18V0Z" fill="white"/>
</mask>
<g mask="url(#mask0_1_6268)">
<path d="M18.0001 12.1819C17.9989 11.1042 17.6992 10.0479 17.1344 9.13007C16.5696 8.21223 15.7616 7.46871 14.8001 6.98193C14.7697 9.04539 13.9366 11.0158 12.4776 12.4754C11.0187 13.9349 9.04856 14.7687 6.98511 14.7999C7.34377 15.5116 7.84478 16.1421 8.45708 16.6522C9.06939 17.1623 9.77993 17.5413 10.5447 17.7655C11.3094 17.9898 12.1121 18.0546 12.9029 17.9559C13.6938 17.8572 14.4559 17.5972 15.1421 17.1919L17.9741 17.9749L17.1911 15.1429C17.7218 14.2465 18.0012 13.2237 18.0001 12.1819Z" fill="#E29B14"/>
<path d="M13.746 6.87311C13.7456 5.81628 13.5016 4.77376 13.0328 3.8266C12.564 2.87944 11.883 2.05315 11.0429 1.41196C10.2029 0.770761 9.2262 0.331937 8.18892 0.129593C7.15164 -0.0727509 6.08167 -0.0331635 5.06218 0.245278C4.04269 0.52372 3.10114 1.03351 2.31073 1.73504C1.52031 2.43656 0.902314 3.31091 0.50478 4.29012C0.107246 5.26933 -0.0591176 6.32703 0.01862 7.381C0.0963577 8.43497 0.416103 9.45681 0.953001 10.3671L0.0250007 13.7211L3.379 12.7931C4.42295 13.409 5.6112 13.738 6.82328 13.7466C8.03535 13.7552 9.22815 13.4431 10.2807 12.842C11.3333 12.241 12.2082 11.3723 12.8168 10.324C13.4254 9.27575 13.7459 8.08521 13.746 6.87311ZM5.818 5.27311H4.764C4.76468 4.92269 4.85266 4.57796 5.02 4.27007C5.18734 3.96219 5.42876 3.70085 5.72244 3.50968C6.01613 3.31851 6.35282 3.20353 6.70208 3.17513C7.05135 3.14673 7.40219 3.20581 7.7229 3.34703C8.04361 3.48824 8.32408 3.70715 8.53896 3.98396C8.75383 4.26076 8.89635 4.58675 8.95363 4.93246C9.01091 5.27817 8.98114 5.6327 8.86702 5.96402C8.7529 6.29534 8.55803 6.593 8.3 6.83011L7.4 7.65011V8.47211H6.346V7.18611L7.584 6.05211C7.69268 5.95364 7.7794 5.83337 7.83849 5.69915C7.89759 5.56493 7.92775 5.41976 7.927 5.27311C7.91856 4.99906 7.80376 4.73906 7.60693 4.54819C7.41009 4.35732 7.14668 4.25058 6.8725 4.25058C6.59832 4.25058 6.33491 4.35732 6.13807 4.54819C5.94124 4.73906 5.82644 4.99906 5.818 5.27311ZM6.345 9.52711H7.4V10.5821H6.346L6.345 9.52711Z" fill="#E29B14"/>
</g>
</svg>
