<svg width="18" height="18" viewBox="0 0 18 18" fill="none" xmlns="http://www.w3.org/2000/svg">
<mask id="mask0_1_6285" style="mask-type:luminance" maskUnits="userSpaceOnUse" x="0" y="0" width="18" height="18">
<path d="M18 0H0V18H18V0Z" fill="white"/>
</mask>
<g mask="url(#mask0_1_6285)">
<path d="M11.25 3.24398L14.618 4.75298L18 3.47998L9 0.10498L0 3.47998L9 6.85498L12.368 5.59198L9 4.19998L11.25 3.24398Z" fill="#52B925"/>
<path d="M0 4.60498V14.73L8.438 17.895V7.76998L0 4.60498ZM4.5 14.767L2.25 13.923V12.723L4.5 13.567V14.767Z" fill="#52B925"/>
<path d="M14.625 5.87098V8.68898L12.375 9.53298V6.71498L9.56299 7.76998V17.895L18 14.73V4.60498L14.625 5.87098Z" fill="#52B925"/>
</g>
</svg>
