<svg width="20" height="20" viewBox="0 0 20 20" fill="none" xmlns="http://www.w3.org/2000/svg">
<path d="M14.0351 6.4292H5.96606L9.99706 9.8872L14.0351 6.4292Z" fill="#D70B02"/>
<path d="M9.99991 10.7151C9.9148 10.715 9.83252 10.6846 9.76791 10.6291L5.35791 6.84914V13.5731H14.6439V6.84814L10.2359 10.6281C10.1713 10.6835 10.089 10.7141 10.0039 10.7141L9.99991 10.7151Z" fill="#D70B02"/>
<path d="M10 0C8.02219 0 6.08879 0.58649 4.4443 1.6853C2.79981 2.78412 1.51809 4.3459 0.761209 6.17317C0.00433284 8.00043 -0.193701 10.0111 0.192152 11.9509C0.578004 13.8907 1.53041 15.6725 2.92894 17.0711C4.32746 18.4696 6.10929 19.422 8.0491 19.8079C9.98891 20.1937 11.9996 19.9957 13.8268 19.2388C15.6541 18.4819 17.2159 17.2002 18.3147 15.5557C19.4135 13.9112 20 11.9778 20 10C20 7.34784 18.9464 4.8043 17.0711 2.92893C15.1957 1.05357 12.6522 0 10 0ZM15.357 13.929C15.357 14.0237 15.3194 14.1145 15.2524 14.1814C15.1855 14.2484 15.0947 14.286 15 14.286H5C4.95312 14.286 4.9067 14.2768 4.86339 14.2588C4.82007 14.2409 4.78072 14.2146 4.74757 14.1814C4.71442 14.1483 4.68812 14.1089 4.67018 14.0656C4.65224 14.0223 4.643 13.9759 4.643 13.929V6.071C4.643 6.02412 4.65224 5.97769 4.67018 5.93438C4.68812 5.89107 4.71442 5.85171 4.74757 5.81856C4.78072 5.78541 4.82007 5.75912 4.86339 5.74118C4.9067 5.72323 4.95312 5.714 5 5.714H15C15.0947 5.714 15.1855 5.75161 15.2524 5.81856C15.3194 5.88551 15.357 5.97632 15.357 6.071V13.929Z" fill="#D70B02"/>
</svg>
