<svg width="19" height="15" viewBox="0 0 19 15" fill="none" xmlns="http://www.w3.org/2000/svg">
<g opacity="0.8">
<path d="M8.56882 7.40006C8.85232 7.56269 9.17347 7.64827 9.50032 7.64827C9.82716 7.64827 10.1483 7.56269 10.4318 7.40006L18.8878 1.76306C18.7486 1.36052 18.4875 1.01134 18.1407 0.764028C17.7939 0.516717 17.3787 0.38356 16.9528 0.383057H2.04682C1.62065 0.383704 1.20527 0.517153 0.858472 0.764843C0.511671 1.01253 0.250685 1.36215 0.111816 1.76506L8.56782 7.40006H8.56882Z" fill="#171717"/>
<path d="M11.049 8.32908C10.582 8.61347 10.0458 8.7639 9.499 8.7639C8.95223 8.7639 8.41599 8.61347 7.949 8.32908L0 3.02808V12.5681C0.000529499 13.1108 0.216365 13.6312 0.600137 14.0149C0.983909 14.3987 1.50426 14.6145 2.047 14.6151H16.953C17.4957 14.6145 18.0161 14.3987 18.3999 14.0149C18.7836 13.6312 18.9995 13.1108 19 12.5681V3.02808L11.049 8.32908Z" fill="#171717"/>
</g>
</svg>
