<svg width="255" height="52" viewBox="0 0 255 52" fill="none" xmlns="http://www.w3.org/2000/svg">
<path d="M243 0H12C5.37258 0 0 5.37258 0 12V40C0 46.6274 5.37258 52 12 52H243C249.627 52 255 46.6274 255 40V12C255 5.37258 249.627 0 243 0Z" fill="white"/>
<path d="M243 0.5H12C5.64873 0.5 0.5 5.64873 0.5 12V40C0.5 46.3513 5.64873 51.5 12 51.5H243C249.351 51.5 254.5 46.3513 254.5 40V12C254.5 5.64873 249.351 0.5 243 0.5Z" stroke="#EAEAEA"/>
<path d="M120.5 5H17C10.3726 5 5 10.3726 5 17V35C5 41.6274 10.3726 47 17 47H120.5C127.127 47 132.5 41.6274 132.5 35V17C132.5 10.3726 127.127 5 120.5 5Z" fill="#C62B27"/>
<path d="M57.42 31.012C57.42 30.796 57.44 30.596 57.48 30.412C57.52 30.228 57.584 30.024 57.672 29.8H58.992C58.856 30.176 58.788 30.524 58.788 30.844C58.788 31.356 58.912 31.756 59.16 32.044C59.408 32.34 59.768 32.488 60.24 32.488C60.76 32.488 61.132 32.324 61.356 31.996C61.588 31.668 61.704 31.192 61.704 30.568V28.036C61.704 27.412 61.584 26.912 61.344 26.536C61.104 26.152 60.748 25.96 60.276 25.96C59.82 25.96 59.496 26.1 59.304 26.38C59.112 26.652 59.016 26.984 59.016 27.376C59.016 27.496 59.032 27.636 59.064 27.796H57.696C57.664 27.636 57.648 27.472 57.648 27.304C57.648 26.864 57.728 26.456 57.888 26.08C58.056 25.704 58.32 25.404 58.68 25.18C59.04 24.948 59.5 24.832 60.06 24.832C60.324 24.832 60.564 24.876 60.78 24.964C61.004 25.052 61.192 25.168 61.344 25.312C61.496 25.448 61.608 25.592 61.68 25.744H61.704V22H63.072V30.58C63.072 31.548 62.824 32.288 62.328 32.8C61.84 33.312 61.144 33.568 60.24 33.568C59.672 33.568 59.176 33.46 58.752 33.244C58.328 33.036 58 32.74 57.768 32.356C57.536 31.972 57.42 31.524 57.42 31.012ZM64.1706 28.624C64.1706 28.44 64.1826 28.272 64.2066 28.12C64.2306 27.96 64.2746 27.792 64.3386 27.616H65.6586C65.5706 27.912 65.5266 28.192 65.5266 28.456C65.5266 28.992 65.6426 29.4 65.8746 29.68C66.1066 29.952 66.4426 30.088 66.8826 30.088C67.3306 30.088 67.6706 29.956 67.9026 29.692C68.1346 29.428 68.2506 29.064 68.2506 28.6C68.2506 28.336 68.2026 28.1 68.1066 27.892C68.0106 27.684 67.8906 27.508 67.7466 27.364C67.6106 27.22 67.4266 27.044 67.1946 26.836C67.1546 26.796 67.0906 26.74 67.0026 26.668C66.7626 26.468 66.5706 26.292 66.4266 26.14C66.2906 25.988 66.1706 25.804 66.0666 25.588C65.9706 25.364 65.9226 25.112 65.9226 24.832H67.2906C67.3306 25.08 67.4266 25.3 67.5786 25.492C67.7306 25.684 67.9506 25.904 68.2386 26.152C68.5426 26.416 68.7826 26.648 68.9586 26.848C69.1346 27.048 69.2866 27.292 69.4146 27.58C69.5426 27.868 69.6066 28.208 69.6066 28.6C69.6066 29.048 69.5026 29.472 69.2946 29.872C69.0866 30.264 68.7746 30.58 68.3586 30.82C67.9506 31.052 67.4586 31.168 66.8826 31.168C66.2906 31.168 65.7906 31.052 65.3826 30.82C64.9746 30.58 64.6706 30.268 64.4706 29.884C64.2706 29.492 64.1706 29.072 64.1706 28.624ZM77.2418 27.952C77.2418 27.248 77.1418 26.736 76.9418 26.416C76.7418 26.096 76.4538 25.936 76.0778 25.936C75.7978 25.936 75.5858 26.056 75.4418 26.296C75.3058 26.528 75.2378 26.844 75.2378 27.244V29.428H73.8818V27.244C73.8818 26.372 73.6098 25.936 73.0658 25.936C72.6898 25.936 72.4058 26.1 72.2138 26.428C72.0218 26.748 71.9258 27.252 71.9258 27.94C71.9258 28.484 72.0018 29.016 72.1538 29.536C72.3138 30.056 72.5418 30.544 72.8378 31H71.4338C71.2258 30.648 71.0578 30.304 70.9298 29.968C70.8098 29.632 70.7178 29.248 70.6538 28.816C70.5978 28.376 70.5698 27.852 70.5698 27.244C70.5698 26.284 70.6938 25.492 70.9418 24.868C71.1978 24.236 71.5698 23.74 72.0578 23.38C72.5458 23.02 73.1698 22.76 73.9298 22.6L75.1178 22.348C75.2538 22.316 75.3658 22.268 75.4538 22.204C75.5498 22.132 75.6138 22.064 75.6458 22H77.0138C76.9818 22.296 76.9018 22.536 76.7738 22.72C76.6538 22.896 76.4658 23.044 76.2098 23.164C75.9538 23.276 75.5938 23.38 75.1298 23.476L74.1218 23.68C73.5218 23.8 73.0058 24.012 72.5738 24.316C72.1498 24.612 71.8578 25.064 71.6978 25.672H71.7338C71.8698 25.416 72.0538 25.216 72.2858 25.072C72.5258 24.928 72.7858 24.856 73.0658 24.856C73.3538 24.856 73.5858 24.896 73.7618 24.976C73.9458 25.048 74.0938 25.164 74.2058 25.324C74.3178 25.484 74.4218 25.708 74.5178 25.996H74.5658C74.7178 25.604 74.9418 25.316 75.2378 25.132C75.5418 24.948 75.8978 24.856 76.3058 24.856C76.7858 24.856 77.1978 24.988 77.5418 25.252C77.8858 25.508 78.1458 25.864 78.3218 26.32C78.5058 26.776 78.5978 27.296 78.5978 27.88C78.5978 28.496 78.5298 29.06 78.3938 29.572C78.2578 30.076 78.0378 30.552 77.7338 31H76.3178C76.6298 30.536 76.8618 30.056 77.0138 29.56C77.1658 29.056 77.2418 28.52 77.2418 27.952ZM87.4421 27.904C87.4421 27.232 87.3501 26.732 87.1661 26.404C86.9901 26.076 86.7141 25.912 86.3381 25.912C86.0021 25.912 85.7461 26.024 85.5701 26.248C85.4021 26.464 85.3181 26.768 85.3181 27.16V28.012C85.3181 28.636 85.2061 29.188 84.9821 29.668C84.7581 30.14 84.4301 30.508 83.9981 30.772C83.5661 31.036 83.0461 31.168 82.4381 31.168C81.8301 31.168 81.3101 31.036 80.8781 30.772C80.4461 30.508 80.1181 30.14 79.8941 29.668C79.6701 29.196 79.5581 28.644 79.5581 28.012C79.5581 27.404 79.6701 26.86 79.8941 26.38C80.1261 25.892 80.4501 25.512 80.8661 25.24C81.2901 24.968 81.7741 24.832 82.3181 24.832C82.6541 24.832 82.9461 24.86 83.1941 24.916C83.4501 24.972 83.6941 25.084 83.9261 25.252C84.1581 25.42 84.3701 25.66 84.5621 25.972H84.6101C84.7541 25.66 84.9221 25.42 85.1141 25.252C85.3061 25.084 85.5061 24.972 85.7141 24.916C85.9301 24.86 86.1741 24.832 86.4461 24.832C86.9181 24.832 87.3301 24.956 87.6821 25.204C88.0421 25.452 88.3181 25.812 88.5101 26.284C88.7021 26.748 88.7981 27.296 88.7981 27.928C88.7981 28.536 88.7261 29.088 88.5821 29.584C88.4461 30.08 88.2301 30.552 87.9341 31H86.5181C86.8301 30.536 87.0621 30.052 87.2141 29.548C87.3661 29.036 87.4421 28.488 87.4421 27.904ZM83.9501 28.012C83.9501 27.388 83.8261 26.884 83.5781 26.5C83.3301 26.108 82.9461 25.912 82.4261 25.912C81.9221 25.912 81.5461 26.108 81.2981 26.5C81.0501 26.892 80.9261 27.396 80.9261 28.012C80.9261 28.612 81.0501 29.108 81.2981 29.5C81.5461 29.892 81.9261 30.088 82.4381 30.088C82.9501 30.088 83.3301 29.896 83.5781 29.512C83.8261 29.12 83.9501 28.62 83.9501 28.012ZM89.7534 31.132C89.7534 30.916 89.7734 30.716 89.8134 30.532C89.8534 30.348 89.9174 30.144 90.0054 29.92H91.3254C91.1894 30.312 91.1214 30.66 91.1214 30.964C91.1214 31.26 91.1814 31.52 91.3014 31.744C91.4214 31.976 91.5974 32.156 91.8294 32.284C92.0694 32.42 92.3574 32.488 92.6934 32.488C92.9974 32.488 93.2574 32.408 93.4734 32.248C93.6974 32.088 93.8654 31.876 93.9774 31.612C94.0974 31.356 94.1574 31.072 94.1574 30.76V27.148C94.1574 26.716 94.0774 26.396 93.9174 26.188C93.7654 25.98 93.5374 25.876 93.2334 25.876C92.9534 25.876 92.7374 25.972 92.5854 26.164C92.4334 26.356 92.3574 26.6 92.3574 26.896V28.144H91.0134V26.776C91.0134 26.528 90.9374 26.344 90.7854 26.224C90.6334 26.104 90.3934 26.044 90.0654 26.044H89.5134V24.892H89.9934C90.4414 24.892 90.7934 24.96 91.0494 25.096C91.3134 25.224 91.5054 25.464 91.6254 25.816H91.6734C91.8174 25.456 92.0374 25.204 92.3334 25.06C92.6294 24.908 93.0014 24.832 93.4494 24.832C93.8814 24.832 94.2534 24.928 94.5654 25.12C94.8774 25.312 95.1134 25.584 95.2734 25.936C95.4414 26.28 95.5254 26.684 95.5254 27.148V30.76C95.5254 31.288 95.4134 31.764 95.1894 32.188C94.9654 32.612 94.6374 32.948 94.2054 33.196C93.7814 33.444 93.2774 33.568 92.6934 33.568C92.0934 33.568 91.5694 33.456 91.1214 33.232C90.6814 33.016 90.3414 32.72 90.1014 32.344C89.8694 31.976 89.7534 31.572 89.7534 31.132ZM100.629 32.2H97.5449V31.216H98.6729V31.168C98.2729 31.04 97.9169 30.808 97.6049 30.472C97.2929 30.128 97.0529 29.732 96.8849 29.284C96.7169 28.836 96.6329 28.388 96.6329 27.94C96.6329 27.292 96.7169 26.736 96.8849 26.272C97.0529 25.8 97.3009 25.444 97.6289 25.204C97.9649 24.956 98.3729 24.832 98.8529 24.832C99.6449 24.832 100.181 25.212 100.461 25.972H100.509C100.621 25.588 100.817 25.304 101.097 25.12C101.377 24.928 101.701 24.832 102.069 24.832C102.445 24.832 102.761 24.924 103.017 25.108C103.273 25.292 103.461 25.58 103.581 25.972H103.629C103.773 25.588 103.997 25.304 104.301 25.12C104.613 24.928 104.949 24.832 105.309 24.832C105.789 24.832 106.189 24.964 106.509 25.228C106.837 25.484 107.081 25.844 107.241 26.308C107.409 26.764 107.493 27.288 107.493 27.88C107.493 28.392 107.445 28.864 107.349 29.296C107.261 29.72 107.117 30.12 106.917 30.496H105.513C105.929 29.728 106.137 28.88 106.137 27.952C106.129 27.248 106.041 26.732 105.873 26.404C105.713 26.076 105.469 25.912 105.141 25.912C104.869 25.912 104.661 26.036 104.517 26.284C104.373 26.524 104.301 26.844 104.301 27.244V29.428H102.945V27.244C102.945 26.796 102.881 26.464 102.753 26.248C102.625 26.024 102.397 25.912 102.069 25.912C101.741 25.912 101.509 26.028 101.373 26.26C101.245 26.492 101.181 26.82 101.181 27.244V29.428H99.8249V27.244C99.8249 26.82 99.7529 26.492 99.6089 26.26C99.4649 26.028 99.2529 25.912 98.9729 25.912C98.6129 25.912 98.3569 26.08 98.2049 26.416C98.0609 26.744 97.9889 27.252 97.9889 27.94C97.9889 28.508 98.0889 29.008 98.2889 29.44C98.4889 29.872 98.7609 30.22 99.1049 30.484C99.4489 30.748 99.8409 30.928 100.281 31.024C100.433 31.056 100.757 31.108 101.253 31.18C101.645 31.228 101.965 31.272 102.213 31.312C102.469 31.36 102.685 31.416 102.861 31.48C103.949 31.832 104.525 32.472 104.589 33.4H103.221C103.141 33 102.881 32.7 102.441 32.5C102.001 32.3 101.397 32.2 100.629 32.2ZM112.776 28C112.776 27.416 112.66 26.924 112.428 26.524C112.204 26.116 111.832 25.912 111.312 25.912C110.792 25.912 110.416 26.116 110.184 26.524C109.96 26.924 109.848 27.416 109.848 28C109.848 28.416 109.876 28.796 109.932 29.14C109.996 29.476 110.08 29.788 110.184 30.076C110.296 30.356 110.436 30.664 110.604 31H109.224C108.984 30.544 108.8 30.088 108.672 29.632C108.544 29.168 108.48 28.624 108.48 28C108.48 27.384 108.588 26.84 108.804 26.368C109.02 25.888 109.34 25.512 109.764 25.24C110.188 24.968 110.704 24.832 111.312 24.832C111.92 24.832 112.436 24.968 112.86 25.24C113.284 25.512 113.604 25.888 113.82 26.368C114.036 26.84 114.144 27.384 114.144 28C114.144 28.616 114.08 29.156 113.952 29.62C113.824 30.076 113.64 30.536 113.4 31H112.02C112.276 30.488 112.464 30.012 112.584 29.572C112.712 29.124 112.776 28.6 112.776 28Z" fill="white"/>
<path d="M180.912 21.432H187.08V22.728H182.412V24.972H186.732V26.196H182.412V28.704H187.164V30H180.912V21.432ZM188.279 23.796H189.575V24.708L189.599 24.732C189.807 24.388 190.079 24.12 190.415 23.928C190.751 23.728 191.123 23.628 191.531 23.628C192.211 23.628 192.747 23.804 193.139 24.156C193.531 24.508 193.727 25.036 193.727 25.74V30H192.359V26.1C192.343 25.612 192.239 25.26 192.047 25.044C191.855 24.82 191.555 24.708 191.147 24.708C190.915 24.708 190.707 24.752 190.523 24.84C190.339 24.92 190.183 25.036 190.055 25.188C189.927 25.332 189.827 25.504 189.755 25.704C189.683 25.904 189.647 26.116 189.647 26.34V30H188.279V23.796ZM200.905 29.676C200.905 30.612 200.641 31.308 200.113 31.764C199.593 32.228 198.841 32.46 197.857 32.46C197.545 32.46 197.229 32.428 196.909 32.364C196.597 32.3 196.309 32.192 196.045 32.04C195.789 31.888 195.573 31.688 195.397 31.44C195.221 31.192 195.117 30.888 195.085 30.528H196.453C196.493 30.72 196.561 30.876 196.657 30.996C196.753 31.116 196.865 31.208 196.993 31.272C197.129 31.344 197.277 31.388 197.437 31.404C197.597 31.428 197.765 31.44 197.941 31.44C198.493 31.44 198.897 31.304 199.153 31.032C199.409 30.76 199.537 30.368 199.537 29.856V28.908H199.513C199.321 29.252 199.057 29.52 198.721 29.712C198.393 29.904 198.037 30 197.653 30C197.157 30 196.733 29.916 196.381 29.748C196.037 29.572 195.749 29.336 195.517 29.04C195.293 28.736 195.129 28.388 195.025 27.996C194.921 27.604 194.869 27.184 194.869 26.736C194.869 26.32 194.933 25.924 195.061 25.548C195.189 25.172 195.373 24.844 195.613 24.564C195.853 24.276 196.145 24.048 196.489 23.88C196.841 23.712 197.237 23.628 197.677 23.628C198.069 23.628 198.429 23.712 198.757 23.88C199.085 24.04 199.337 24.296 199.513 24.648H199.537V23.796H200.905V29.676ZM197.869 28.92C198.173 28.92 198.429 28.86 198.637 28.74C198.853 28.612 199.025 28.448 199.153 28.248C199.289 28.04 199.385 27.808 199.441 27.552C199.505 27.288 199.537 27.024 199.537 26.76C199.537 26.496 199.505 26.24 199.441 25.992C199.377 25.744 199.277 25.524 199.141 25.332C199.013 25.14 198.841 24.988 198.625 24.876C198.417 24.764 198.165 24.708 197.869 24.708C197.565 24.708 197.309 24.772 197.101 24.9C196.893 25.028 196.725 25.196 196.597 25.404C196.469 25.604 196.377 25.836 196.321 26.1C196.265 26.356 196.237 26.612 196.237 26.868C196.237 27.124 196.269 27.376 196.333 27.624C196.397 27.864 196.493 28.08 196.621 28.272C196.757 28.464 196.925 28.62 197.125 28.74C197.333 28.86 197.581 28.92 197.869 28.92ZM202.319 21.432H203.687V30H202.319V21.432ZM205.213 21.432H206.581V22.728H205.213V21.432ZM205.213 23.796H206.581V30H205.213V23.796ZM209.104 28.008C209.144 28.408 209.296 28.688 209.56 28.848C209.824 29.008 210.14 29.088 210.508 29.088C210.636 29.088 210.78 29.08 210.94 29.064C211.108 29.04 211.264 29 211.408 28.944C211.552 28.888 211.668 28.808 211.756 28.704C211.852 28.592 211.896 28.448 211.888 28.272C211.88 28.096 211.816 27.952 211.696 27.84C211.576 27.728 211.42 27.64 211.228 27.576C211.044 27.504 210.832 27.444 210.592 27.396C210.352 27.348 210.108 27.296 209.86 27.24C209.604 27.184 209.356 27.116 209.116 27.036C208.884 26.956 208.672 26.848 208.48 26.712C208.296 26.576 208.148 26.404 208.036 26.196C207.924 25.98 207.868 25.716 207.868 25.404C207.868 25.068 207.948 24.788 208.108 24.564C208.276 24.332 208.484 24.148 208.732 24.012C208.988 23.868 209.268 23.768 209.572 23.712C209.884 23.656 210.18 23.628 210.46 23.628C210.78 23.628 211.084 23.664 211.372 23.736C211.668 23.8 211.932 23.908 212.164 24.06C212.404 24.212 212.6 24.412 212.752 24.66C212.912 24.9 213.012 25.192 213.052 25.536H211.624C211.56 25.208 211.408 24.988 211.168 24.876C210.936 24.764 210.668 24.708 210.364 24.708C210.268 24.708 210.152 24.716 210.016 24.732C209.888 24.748 209.764 24.78 209.644 24.828C209.532 24.868 209.436 24.932 209.356 25.02C209.276 25.1 209.236 25.208 209.236 25.344C209.236 25.512 209.292 25.648 209.404 25.752C209.524 25.856 209.676 25.944 209.86 26.016C210.052 26.08 210.268 26.136 210.508 26.184C210.748 26.232 210.996 26.284 211.252 26.34C211.5 26.396 211.744 26.464 211.984 26.544C212.224 26.624 212.436 26.732 212.62 26.868C212.812 27.004 212.964 27.176 213.076 27.384C213.196 27.592 213.256 27.848 213.256 28.152C213.256 28.52 213.172 28.832 213.004 29.088C212.836 29.344 212.616 29.552 212.344 29.712C212.08 29.872 211.784 29.988 211.456 30.06C211.128 30.132 210.804 30.168 210.484 30.168C210.092 30.168 209.728 30.124 209.392 30.036C209.064 29.948 208.776 29.816 208.528 29.64C208.288 29.456 208.096 29.232 207.952 28.968C207.816 28.696 207.744 28.376 207.736 28.008H209.104ZM214.294 21.432H215.662V24.612H215.686C215.854 24.332 216.102 24.1 216.43 23.916C216.766 23.724 217.138 23.628 217.546 23.628C218.226 23.628 218.762 23.804 219.154 24.156C219.546 24.508 219.742 25.036 219.742 25.74V30H218.374V26.1C218.358 25.612 218.254 25.26 218.062 25.044C217.87 24.82 217.57 24.708 217.162 24.708C216.93 24.708 216.722 24.752 216.538 24.84C216.354 24.92 216.198 25.036 216.07 25.188C215.942 25.332 215.842 25.504 215.77 25.704C215.698 25.904 215.662 26.116 215.662 26.34V30H214.294V21.432Z" fill="black"/>
<mask id="mask0_1_6163" style="mask-type:luminance" maskUnits="userSpaceOnUse" x="153" y="19" width="20" height="14">
<path d="M171 19H155C153.895 19 153 19.8954 153 21V31C153 32.1046 153.895 33 155 33H171C172.105 33 173 32.1046 173 31V21C173 19.8954 172.105 19 171 19Z" fill="white"/>
</mask>
<g mask="url(#mask0_1_6163)">
<path d="M176.333 18H149.667V34H176.333V18Z" fill="#00247D"/>
<path d="M149.667 18L176.333 34L149.667 18ZM176.333 18L149.667 34L176.333 18Z" fill="black"/>
<path d="M149.667 18L176.333 34M176.333 18L149.667 34" stroke="white" stroke-width="2.39"/>
<path d="M163 18V34V18ZM149.667 26H176.333H149.667Z" fill="black"/>
<path d="M163 18V34M149.667 26H176.333" stroke="white" stroke-width="3.984"/>
<path d="M163 18V34V18ZM149.667 26H176.333H149.667Z" fill="black"/>
<path d="M163 18V34M149.667 26H176.333" stroke="#CF142B" stroke-width="2.39"/>
</g>
</svg>
