<svg width="216" height="216" viewBox="0 0 216 216" fill="none" xmlns="http://www.w3.org/2000/svg">
<path d="M53.777 53.7273C64.4109 43.1034 77.9558 35.8708 92.6995 32.9435C107.443 30.0163 122.724 31.5258 136.61 37.2814C150.496 43.037 162.363 52.7802 170.713 65.2794C179.063 77.7786 183.519 92.4727 183.519 107.504C183.519 122.536 179.063 137.23 170.713 149.729C162.363 162.228 150.496 171.971 136.61 177.727C122.724 183.482 107.443 184.992 92.6995 182.065C77.9558 179.138 64.4109 171.905 53.777 161.281C46.7005 154.227 41.0858 145.846 37.2547 136.618C33.4237 127.389 31.4517 117.496 31.4517 107.504C31.4517 97.5124 33.4237 87.6188 37.2547 78.3907C41.0858 69.1625 46.7005 60.7812 53.777 53.7273Z" fill="#E4DFEA"/>
<path d="M148.201 33.0141C146.531 33.0141 144.899 32.5189 143.51 31.5911C142.122 30.6634 141.04 29.3448 140.401 27.8021C139.762 26.2593 139.595 24.5617 139.92 22.9239C140.246 21.2861 141.05 19.7817 142.231 18.601C143.412 17.4202 144.916 16.6161 146.554 16.2903C148.192 15.9645 149.889 16.1317 151.432 16.7707C152.975 17.4098 154.293 18.4919 155.221 19.8804C156.149 21.2688 156.644 22.9012 156.644 24.571C156.644 26.8103 155.755 28.9578 154.171 30.5412C152.588 32.1245 150.44 33.0141 148.201 33.0141ZM148.201 16.8581C146.675 16.8581 145.184 17.3105 143.915 18.1581C142.647 19.0057 141.658 20.2105 141.074 21.62C140.49 23.0296 140.338 24.5806 140.635 26.077C140.933 27.5734 141.668 28.9479 142.746 30.0267C143.825 31.1055 145.2 31.8402 146.696 32.1378C148.193 32.4355 149.744 32.2827 151.153 31.6989C152.563 31.115 153.767 30.1263 154.615 28.8577C155.463 27.5892 155.915 26.0977 155.915 24.5721C155.915 22.5262 155.102 20.5641 153.656 19.1174C152.209 17.6708 150.247 16.8581 148.201 16.8581Z" fill="#C62B27"/>
<path d="M169.735 56.3811C168.935 56.3838 168.152 56.1489 167.486 55.7062C166.82 55.2635 166.3 54.6328 165.992 53.8942C165.685 53.1556 165.604 52.3423 165.759 51.5576C165.914 50.7728 166.299 50.0518 166.865 49.4861C167.431 48.9204 168.152 48.5354 168.937 48.38C169.721 48.2246 170.535 48.3058 171.273 48.6132C172.012 48.9207 172.643 49.4405 173.085 50.1069C173.528 50.7732 173.763 51.556 173.76 52.3561C173.756 53.4224 173.331 54.4441 172.577 55.1981C171.823 55.9521 170.801 56.3774 169.735 56.3811ZM169.735 49.0901C169.741 49.4523 169.89 49.7975 170.149 50.0505C170.408 50.3036 170.757 50.4439 171.119 50.441C171.481 50.4381 171.828 50.2922 172.083 50.035C172.338 49.7779 172.481 49.4303 172.481 49.0681C172.481 48.7058 172.338 48.3583 172.083 48.1011C171.828 47.8439 171.481 47.698 171.119 47.6951C170.757 47.6922 170.408 47.8326 170.149 48.0856C169.89 48.3387 169.741 48.6839 169.735 49.0461V49.0901Z" fill="#9D39B5"/>
<path d="M81.3611 42.988C80.1569 42.9847 78.9912 42.564 78.0624 41.7976C77.1336 41.0312 76.4992 39.9666 76.2672 38.7849C76.0352 37.6033 76.22 36.3779 76.7902 35.3172C77.3603 34.2566 78.2805 33.4264 79.394 32.968C80.5075 32.5096 81.7454 32.4514 82.897 32.8033C84.0486 33.1552 85.0426 33.8954 85.7098 34.8979C86.3769 35.9004 86.6758 37.1031 86.5557 38.3013C86.4356 39.4994 85.9039 40.6189 85.0511 41.469C84.5661 41.9525 83.9906 42.3355 83.3574 42.5961C82.7242 42.8568 82.0458 42.99 81.3611 42.988ZM81.3611 33.306C80.3259 33.3095 79.3239 33.6717 78.5257 34.3309C77.7276 34.9901 77.1826 35.9056 76.9836 36.9215C76.7845 37.9374 76.9438 38.9909 77.4342 39.9025C77.9247 40.8142 78.716 41.5277 79.6733 41.9215C80.6307 42.3153 81.695 42.3651 82.6849 42.0624C83.6749 41.7596 84.5293 41.1231 85.1027 40.2612C85.6761 39.3994 85.933 38.3653 85.8297 37.3353C85.7264 36.3053 85.2692 35.3429 84.5361 34.612C84.1189 34.1961 83.6236 33.8666 83.0788 33.6425C82.5339 33.4184 81.9502 33.3041 81.3611 33.306Z" fill="#9D39B5"/>
<path d="M54.5709 130.69C55.8914 130.69 56.9619 129.619 56.9619 128.299C56.9619 126.978 55.8914 125.908 54.5709 125.908C53.2504 125.908 52.1799 126.978 52.1799 128.299C52.1799 129.619 53.2504 130.69 54.5709 130.69Z" fill="#C62B27"/>
<path d="M41.0164 131.431L32.7991 139.648L33.3146 140.163L41.5318 131.946L41.0164 131.431Z" fill="#9D39B5"/>
<path d="M81.6234 59.8335L81.1079 60.349L84.9433 64.1843L85.4587 63.6689L81.6234 59.8335Z" fill="white"/>
<path opacity="0.2" d="M139.008 75.957C143.029 47.9857 123.613 22.0511 95.6419 18.0303C67.6707 14.0096 41.736 33.4253 37.7153 61.3965C33.6945 89.3678 53.1102 115.302 81.0815 119.323C109.053 123.344 134.987 103.928 139.008 75.957Z" fill="#B8B2BF"/>
<g style="mix-blend-mode:multiply">
<path d="M125.544 101.255C119.799 97.0121 93.4649 85.3321 83.2579 81.5121C82.8929 74.9211 74.2029 45.2621 71.3739 38.0741C70.9997 37.1745 70.4012 36.3859 69.6355 35.7835C68.8697 35.1811 67.9623 34.785 67 34.6331C67.6286 33.2456 68.4216 31.9385 69.362 30.7401C69.625 30.3031 69.8289 29.9091 70.0179 29.5301C72.1609 26.3951 70.966 22.2391 71.403 20.6061C71.84 18.9731 69.143 19.0461 68.103 23.5221C66.091 20.1391 64.2389 13.0381 59.6459 17.5141C53.3609 23.6381 56.292 33.4081 57.532 36.6891C57.0133 37.0691 56.5559 37.5264 56.1759 38.0451C53.3619 42.1861 54.4849 86.3101 58.2169 93.5861L58.334 93.7611C58.5153 94.1161 58.7568 94.4368 59.048 94.7091C65.056 100.454 110.083 138.293 120.13 136.135C129.627 134.064 132.285 106.242 125.544 101.255Z" fill="#E4DFEA"/>
</g>
<path d="M102.512 14.086C88.4963 10.5036 73.6391 12.4588 61.0274 19.5453C48.4157 26.6319 39.0191 38.305 34.7898 52.1393C30.5606 65.9736 31.8239 80.9054 38.3173 93.8326C44.8107 106.76 56.0349 116.688 69.658 121.555L66.158 131.755L61.244 146.681C59.596 151.637 58.051 156.622 56.444 161.592L54.067 168.992L52.867 172.723L52.267 174.589C52.1468 174.924 52.1002 175.281 52.1304 175.636C52.1606 175.99 52.2669 176.334 52.442 176.644C52.602 176.936 52.777 177.244 52.967 177.519C54.6822 180.127 57.3629 181.947 60.4197 182.578C63.4765 183.209 66.6589 182.601 69.267 180.886C69.5695 180.699 69.8278 180.448 70.0241 180.151C70.2204 179.854 70.35 179.518 70.404 179.166L70.754 177.242L71.483 173.394L72.941 165.694C73.889 160.563 74.895 155.494 75.857 150.302L78.613 134.866C79.213 131.295 79.823 127.738 80.407 124.166C94.6824 126.309 109.235 122.881 121.054 114.592C132.872 106.304 141.051 93.7884 143.899 79.6367C146.746 65.4851 144.044 50.7804 136.351 38.5657C128.659 26.351 116.564 17.5614 102.571 14.016L102.512 14.086ZM133.381 79.915C131.157 88.7632 126.358 96.7527 119.592 102.872C112.826 108.992 104.396 112.967 95.3693 114.293C86.3429 115.62 77.1259 114.238 68.8848 110.324C60.6438 106.41 53.7493 100.139 49.0739 92.3048C44.3985 84.4705 42.1525 75.4253 42.6201 66.3139C43.0877 57.2026 46.248 48.4348 51.7008 41.1204C57.1537 33.8059 64.654 28.2736 73.2524 25.2237C81.8509 22.1738 91.1609 21.7434 100.004 23.987C111.839 26.9902 121.999 34.565 128.256 45.0498C134.514 55.5346 136.357 68.0732 133.381 79.915Z" fill="#C62B27"/>
<path d="M161.681 193.65H84.574C83.9469 193.65 83.3266 193.52 82.7526 193.268C82.1785 193.016 81.6632 192.647 81.2394 192.185C80.8156 191.723 80.4926 191.177 80.2909 190.584C80.0892 189.99 80.0133 189.361 80.068 188.736L80.535 183.326H165.72L166.201 188.736C166.253 189.361 166.176 189.991 165.972 190.584C165.769 191.178 165.444 191.723 165.02 192.185C164.595 192.647 164.079 193.016 163.504 193.268C162.929 193.52 162.309 193.65 161.681 193.65Z" fill="#632B6B"/>
<path d="M125.77 97.9321C121.716 94.8991 118.479 80.4321 117.954 72.2831L109.205 82.2571C112.865 95.9201 110.153 95.4681 104.466 100.907C98.779 106.346 105.924 116.436 120.374 113.068C133.104 110.093 129.809 100.965 125.77 97.9321Z" fill="#E4DFEA"/>
<path d="M103.581 64.7611C103.346 64.7584 103.112 64.734 102.881 64.6881C102.363 64.5851 101.874 64.3681 101.45 64.0528C101.027 63.7375 100.678 63.3317 100.431 62.8651C99.8868 61.7672 99.7473 60.5126 100.037 59.3221C100.074 59.1295 100.122 58.9395 100.183 58.7531C101.058 55.9531 103.668 54.0431 106.016 54.4951C106.305 54.5475 106.585 54.6408 106.847 54.7721C107.342 55.0137 107.777 55.3629 108.121 55.7942C108.464 56.2256 108.706 56.7281 108.83 57.2651C109.094 58.3083 109.059 59.4046 108.73 60.4291C108.424 61.5945 107.765 62.6367 106.843 63.4124C105.921 64.1881 104.782 64.6592 103.581 64.7611ZM105.302 54.7871C104.188 54.899 103.134 55.3485 102.282 56.0754C101.43 56.8024 100.82 57.7722 100.534 58.8551C100.47 59.0243 100.426 59.2005 100.403 59.3801C100.118 60.4896 100.243 61.6646 100.753 62.6901C100.974 63.1113 101.286 63.4778 101.667 63.7629C102.047 64.048 102.487 64.2445 102.953 64.3381C105.126 64.7461 107.561 62.9531 108.377 60.3281C108.676 59.383 108.706 58.3733 108.464 57.4121C108.353 56.9274 108.135 56.4734 107.828 56.0826C107.52 55.6919 107.13 55.3741 106.685 55.1521C106.451 55.0354 106.2 54.9567 105.941 54.9191C105.732 54.8527 105.517 54.8088 105.299 54.7881L105.302 54.7871Z" fill="#A394B2"/>
<path d="M100.534 63.0401L100.434 62.8651C99.8898 61.7672 99.7502 60.5126 100.04 59.3221L106.66 54.8311H106.747C107.246 55.0742 107.684 55.4254 108.03 55.8593C108.376 56.2931 108.621 56.7986 108.747 57.3391V57.4561L100.534 63.0401ZM100.388 59.468C100.149 60.4824 100.247 61.5467 100.665 62.5011L108.437 57.237C108.32 56.7913 108.112 56.3745 107.826 56.0131C107.54 55.6517 107.182 55.3534 106.775 55.1371L100.388 59.468Z" fill="#A394B2"/>
<path d="M104.545 56.519C98.96 65.691 92.982 86.2191 110.698 83.9911C134.816 80.958 120.726 29.981 104.545 56.519Z" fill="#E4DFEA"/>
<path d="M62.2079 37.6211C61.3079 34.5301 63.5199 33.0281 65.2409 30.7391C66.9619 28.4501 67.6029 27.0211 65.5909 24.5391C63.5789 22.0571 63.1999 12.4391 57.3519 17.4671C48.6759 24.9181 52.9779 37.7791 52.9779 37.7791L62.2079 37.6211Z" fill="#E4DFEA"/>
<path d="M155.145 109.135C152.375 101.235 138.318 98.345 125.822 97.586L109.228 98.942C101.091 93.853 80.7071 84.36 72.0601 80.919C72.5851 74.328 67.9481 44.669 66.1111 37.481C64.6531 31.648 53.9351 33.675 50.8881 37.481C47.5051 41.622 42.6061 85.746 45.3621 93.022C45.3851 93.0831 45.4143 93.1417 45.4491 93.197C45.5745 93.5474 45.7679 93.8695 46.0181 94.145C49.6491 98.145 70.0181 117.636 85.5781 128.426C81.9781 151.202 79.3081 185.046 79.3081 185.046H166.797C166.797 185.046 164.244 135.133 155.145 109.135Z" fill="#9D39B5"/>
<path d="M66.0301 29.529C68.5821 26.394 67.9551 22.238 68.6111 20.605C69.2671 18.972 66.5701 19.045 64.9361 23.521C63.9161 26.161 66.0301 29.529 66.0301 29.529Z" fill="#E4DFEA"/>
<g style="mix-blend-mode:multiply">
<path d="M154.999 109.135C152.228 101.235 138.172 98.3449 125.676 97.5859L105.845 99.2039H105.699C103.767 99.594 101.95 100.422 100.388 101.623C98.8259 102.824 97.5597 104.368 96.6868 106.135C95.8138 107.902 95.3573 109.845 95.3523 111.816C95.3473 113.787 95.794 115.733 96.658 117.504C97.3613 119 98.14 120.46 98.991 121.878C105.013 132.435 92.502 151.362 101.907 165.243C113.572 182.61 145.243 187.115 166.474 181.516C165.673 169.925 162.669 131.065 154.999 109.135Z" fill="#E4DFEA"/>
</g>
<path d="M187.865 101.355C184.517 98.8225 181.752 95.6001 179.758 91.906C184.435 94.1129 188.246 97.8109 190.592 102.419L191.234 102.084C188.143 95.9311 183.827 93.2181 179.175 90.7691C176.609 85.4181 175.967 80.2561 172.686 75.488C169.201 70.414 163.937 69.5391 158.877 67.7451C156.544 61.2711 153.877 54.622 144.689 48.789C141.977 43.789 136.713 40.04 122.306 40.93C121.104 41.0026 119.909 41.1698 118.733 41.43C116.753 41.8474 114.856 42.5909 113.119 43.63C109.255 44.811 104.108 47.902 102.519 52.277C101.396 55.412 102.198 58.7071 104.91 62.0901C105.045 63.7385 105.294 65.3758 105.654 66.99C108.133 77.941 109.124 84.211 101.163 90.32C93.2021 96.4291 95.3301 104.902 101.323 115.502C107.316 126.102 94.8341 144.986 104.239 158.882C113.119 172.093 133.577 177.838 152.198 177.401C157.576 177.297 162.926 176.598 168.15 175.316C175.237 173.537 181.273 170.616 185.021 166.698C200.053 151.005 201.717 112.218 187.865 101.355ZM106.34 51.555C105.219 54.4717 104.722 57.5913 104.882 60.712C103.943 59.5876 103.302 58.2453 103.016 56.8084C102.731 55.3715 102.811 53.886 103.249 52.488C104.401 49.309 107.623 46.8011 110.802 45.2991C108.842 47.0026 107.313 49.146 106.34 51.554V51.555ZM145.331 50.097C153.22 55.521 155.831 61.514 157.988 67.42C156.236 66.7968 154.57 65.9541 153.03 64.912C148.014 61.398 147.664 55.288 145.33 50.083L145.331 50.097Z" fill="#C62B27"/>
<path d="M168.331 175.297C163.107 176.579 157.757 177.278 152.379 177.382C150.308 169.027 145.555 163.369 139.81 156.56C134.794 150.596 129.093 143.83 125.228 134.586C119.556 120.996 120.154 108.981 120.664 98.3801C121.408 83.3801 122.122 70.1941 106.578 51.5591C107.612 48.9487 109.292 46.6433 111.459 44.8583C113.627 43.0733 116.212 41.867 118.972 41.3521C138.38 64.857 137.491 82.9521 136.689 99.1241C136.189 109.331 135.756 118.08 140.028 128.36C142.944 135.345 147.319 140.609 152.072 146.193C158.474 153.821 165.589 162.276 168.331 175.297Z" fill="#D33D3D"/>
</svg>
