<svg width="38" height="38" viewBox="0 0 38 38" fill="none" xmlns="http://www.w3.org/2000/svg">
<path opacity="0.2" d="M24 0H14C6.26801 0 0 6.26801 0 14V24C0 31.732 6.26801 38 14 38H24C31.732 38 38 31.732 38 24V14C38 6.26801 31.732 0 24 0Z" fill="#C62B27"/>
<mask id="mask0_201_2" style="mask-type:luminance" maskUnits="userSpaceOnUse" x="10" y="10" width="18" height="18">
<path d="M28 10H10V28H28V10Z" fill="white"/>
</mask>
<g mask="url(#mask0_201_2)">
<path d="M14.6231 26.5942H12.1341C12.0263 26.5949 11.9198 26.5713 11.8224 26.5251C11.7251 26.4789 11.6395 26.4112 11.5721 26.3272C11.5028 26.2421 11.4535 26.1426 11.4277 26.036C11.402 25.9295 11.4004 25.8185 11.4231 25.7112C11.7857 24.0033 12.7131 22.4674 14.0557 21.3513C15.3983 20.2351 17.0777 19.6038 18.8231 19.5592C18.8831 19.5592 18.9421 19.5592 19.0021 19.5592C19.0621 19.5592 19.1231 19.5592 19.1831 19.5592C20.0512 19.5778 20.91 19.7431 21.7231 20.0482C21.8095 20.0806 21.9014 20.0957 21.9937 20.0926C22.0859 20.0895 22.1766 20.0683 22.2607 20.0301C22.3447 19.9919 22.4204 19.9376 22.4834 19.8702C22.5465 19.8027 22.5956 19.7236 22.6281 19.6372C22.6605 19.5508 22.6756 19.4588 22.6725 19.3666C22.6694 19.2743 22.6482 19.1836 22.61 19.0995C22.5718 19.0155 22.5175 18.9398 22.4501 18.8768C22.3826 18.8137 22.3035 18.7646 22.2171 18.7322C22.1004 18.6882 21.9834 18.6472 21.8661 18.6092C22.6705 18.0081 23.2653 17.169 23.5661 16.2109C23.8669 15.2528 23.8583 14.2243 23.5416 13.2714C23.2249 12.3184 22.6162 11.4893 21.8019 10.9018C20.9875 10.3142 20.0088 9.99805 19.0046 9.99805C18.0003 9.99805 17.0216 10.3142 16.2073 10.9018C15.3929 11.4893 14.7842 12.3184 14.4675 13.2714C14.1508 14.2243 14.1423 15.2528 14.443 16.2109C14.7438 17.169 15.3386 18.0081 16.1431 18.6092C14.618 19.1099 13.2516 20.0034 12.1814 21.1997C11.1111 22.396 10.3747 23.853 10.0461 25.4242C9.98062 25.735 9.98534 26.0565 10.0599 26.3653C10.1344 26.6741 10.2769 26.9624 10.4769 27.2092C10.6769 27.4559 10.9295 27.655 11.2161 27.7918C11.5028 27.9287 11.8164 27.9998 12.1341 28.0002H14.6231C14.8095 28.0002 14.9883 27.9261 15.1202 27.7943C15.252 27.6624 15.3261 27.4836 15.3261 27.2972C15.3261 27.1107 15.252 26.9319 15.1202 26.8001C14.9883 26.6682 14.8095 26.5942 14.6231 26.5942ZM15.6231 14.7822C15.6229 14.1217 15.8165 13.4757 16.1799 12.9242C16.5434 12.3727 17.0606 11.9399 17.6676 11.6795C18.2746 11.4192 18.9447 11.3426 19.5947 11.4594C20.2448 11.5762 20.8463 11.8811 21.3248 12.3365C21.8032 12.7918 22.1375 13.3775 22.2863 14.021C22.4351 14.6645 22.3918 15.3375 22.1618 15.9567C21.9317 16.5758 21.5251 17.1138 20.9922 17.5041C20.4594 17.8943 19.8237 18.1197 19.1641 18.1522L19.0001 18.1502H18.8351C17.9702 18.1069 17.155 17.7332 16.5577 17.1063C15.9604 16.4794 15.6265 15.6471 15.6251 14.7812L15.6231 14.7822Z" fill="#C62B27"/>
<path d="M27.462 22.1151C27.3112 21.7829 27.068 21.5011 26.7614 21.3034C26.4548 21.1057 26.0978 21.0004 25.733 21.0001H23.533C23.1535 20.9954 22.7817 21.1067 22.4673 21.3192C22.1529 21.5317 21.911 21.8353 21.774 22.1891C21.737 22.2891 21.692 22.4061 21.645 22.5471H17.045C16.9516 22.5475 16.8593 22.5666 16.7735 22.6031C16.6876 22.6397 16.6099 22.6931 16.545 22.7601L15.331 24.0081C15.2018 24.1391 15.1294 24.3157 15.1294 24.4996C15.1294 24.6836 15.2018 24.8602 15.331 24.9911L16.561 26.2431C16.6262 26.3096 16.704 26.3625 16.7898 26.3985C16.8757 26.4346 16.9678 26.4532 17.061 26.4531H19.352C19.5384 26.4531 19.7172 26.3791 19.8491 26.2472C19.9809 26.1154 20.055 25.9366 20.055 25.7501C20.055 25.5637 19.9809 25.3849 19.8491 25.2531C19.7172 25.1212 19.5384 25.0471 19.352 25.0471H17.361L16.819 24.4951L17.341 23.9571H22.175C22.3325 23.9577 22.4857 23.9051 22.6096 23.8078C22.7336 23.7106 22.8211 23.5743 22.858 23.4211C22.9191 23.175 22.9963 22.9332 23.089 22.6971C23.1248 22.6089 23.1872 22.5339 23.2674 22.4825C23.3476 22.4311 23.4418 22.4058 23.537 22.4101H25.731C25.8246 22.408 25.9168 22.4333 25.9962 22.4828C26.0756 22.5324 26.1388 22.6041 26.178 22.6891C26.4374 23.2518 26.579 23.8617 26.594 24.4811C26.5806 25.1108 26.4401 25.7312 26.181 26.3051C26.1435 26.3911 26.0816 26.4641 26.0031 26.5153C25.9245 26.5665 25.8327 26.5936 25.739 26.5931H23.519C23.4213 26.5912 23.3264 26.5607 23.2459 26.5055C23.1654 26.4502 23.1029 26.3726 23.066 26.2821C22.9751 26.0549 22.9022 25.8208 22.848 25.5821C22.8265 25.4923 22.7875 25.4076 22.7333 25.3328C22.6791 25.2581 22.6107 25.1947 22.532 25.1464C22.4533 25.098 22.3659 25.0657 22.2747 25.0511C22.1835 25.0366 22.0903 25.0402 22.0005 25.0616C21.9106 25.0831 21.8259 25.1221 21.7512 25.1763C21.6764 25.2305 21.613 25.2989 21.5647 25.3776C21.5164 25.4563 21.484 25.5437 21.4695 25.6349C21.4549 25.7262 21.4585 25.8193 21.48 25.9091C21.5517 26.2161 21.6473 26.5171 21.766 26.8091C21.9067 27.159 22.1483 27.4591 22.4602 27.6712C22.772 27.8833 23.1399 27.9978 23.517 28.0001H25.741C26.1081 28.0003 26.4673 27.8933 26.7744 27.6922C27.0816 27.4911 27.3233 27.2047 27.47 26.8681C27.8067 26.1156 27.987 25.3025 28 24.4781C27.9846 23.6619 27.8014 22.8576 27.462 22.1151Z" fill="#C62B27"/>
<path d="M25.152 25.1873C25.5402 25.1873 25.855 24.8725 25.855 24.4843C25.855 24.096 25.5402 23.7812 25.152 23.7812C24.7637 23.7812 24.449 24.096 24.449 24.4843C24.449 24.8725 24.7637 25.1873 25.152 25.1873Z" fill="#C62B27"/>
</g>
</svg>
