<svg width="20" height="20" viewBox="0 0 20 20" fill="none" xmlns="http://www.w3.org/2000/svg">
<path d="M10 0.000976562C8.02219 0.000976562 6.08879 0.587466 4.4443 1.68628C2.79981 2.78509 1.51809 4.34688 0.761209 6.17414C0.00433284 8.0014 -0.193701 10.0121 0.192152 11.9519C0.578004 13.8917 1.53041 15.6735 2.92894 17.072C4.32746 18.4706 6.10929 19.423 8.0491 19.8088C9.98891 20.1947 11.9996 19.9966 13.8268 19.2398C15.6541 18.4829 17.2159 17.2012 18.3147 15.5567C19.4135 13.9122 20 11.9788 20 10.001C19.9971 7.34971 18.9426 4.80786 17.0679 2.93312C15.1931 1.05839 12.6513 0.00388816 10 0.000976562ZM10 18.182C8.382 18.1818 6.80038 17.7018 5.45516 16.8027C4.10993 15.9037 3.06151 14.6259 2.44246 13.131C1.82341 11.6361 1.66154 9.99122 1.97732 8.40433C2.2931 6.81744 3.07234 5.35982 4.21652 4.21578C5.36069 3.07175 6.81841 2.29268 8.40534 1.9771C9.99227 1.66151 11.6371 1.82358 13.132 2.44281C14.6268 3.06204 15.9044 4.11062 16.8033 5.45596C17.7022 6.8013 18.182 8.38297 18.182 10.001C18.1794 12.1701 17.3164 14.2496 15.7826 15.7832C14.2487 17.3169 12.1691 18.1796 10 18.182Z" fill="white"/>
<path d="M10.0001 7.88196C9.75898 7.88196 9.52777 7.97773 9.3573 8.1482C9.18683 8.31867 9.09106 8.54988 9.09106 8.79096V14.851C9.09106 15.092 9.18683 15.3232 9.3573 15.4937C9.52777 15.6642 9.75898 15.76 10.0001 15.76C10.2411 15.76 10.4724 15.6642 10.6428 15.4937C10.8133 15.3232 10.9091 15.092 10.9091 14.851V8.78796C10.9083 8.5474 10.8122 8.31696 10.6418 8.14714C10.4714 7.97731 10.2406 7.88196 10.0001 7.88196Z" fill="white"/>
<path d="M9.99988 4.24402C9.78985 4.24423 9.58639 4.31724 9.42415 4.45061C9.26191 4.58399 9.15092 4.76949 9.1101 4.97551C9.06927 5.18154 9.10113 5.39534 9.20024 5.58051C9.29936 5.76568 9.4596 5.91077 9.65368 5.99106C9.84775 6.07134 10.0637 6.08187 10.2646 6.02084C10.4656 5.9598 10.6392 5.83099 10.7558 5.65634C10.8725 5.48168 10.925 5.27199 10.9044 5.06297C10.8838 4.85396 10.7914 4.65854 10.6429 4.51002C10.4718 4.34032 10.2408 4.24476 9.99988 4.24402Z" fill="white"/>
</svg>
