<svg width="10" height="8" viewBox="0 0 10 8" fill="none" xmlns="http://www.w3.org/2000/svg">
<path d="M9.26682 1.00894L8.53082 0.252941C8.51585 0.236952 8.49772 0.22425 8.47758 0.215642C8.45744 0.207035 8.43572 0.202709 8.41382 0.20294C8.39187 0.202326 8.37004 0.206478 8.34984 0.215109C8.32964 0.223741 8.31155 0.236648 8.29682 0.252941L3.19682 5.38994L1.34082 3.53394C1.3257 3.51815 1.30754 3.50558 1.28743 3.497C1.26732 3.48842 1.24569 3.48399 1.22382 3.48399C1.20196 3.48399 1.18032 3.48842 1.16021 3.497C1.14011 3.50558 1.12194 3.51815 1.10682 3.53394L0.362822 4.27794C0.347039 4.29348 0.334505 4.312 0.32595 4.33243C0.317394 4.35286 0.312988 4.37479 0.312988 4.39694C0.312988 4.41909 0.317394 4.44102 0.32595 4.46145C0.334505 4.48188 0.347039 4.5004 0.362822 4.51594L2.70382 6.85694C2.8307 6.99547 3.00552 7.08055 3.19282 7.09494C3.3767 7.07841 3.54866 6.99686 3.67782 6.86494L9.26582 1.24794C9.29541 1.21523 9.31187 1.17274 9.31205 1.12863C9.31224 1.08452 9.29613 1.0419 9.26682 1.00894Z" fill="white"/>
</svg>
