<svg width="6" height="10" viewBox="0 0 6 10" fill="none" xmlns="http://www.w3.org/2000/svg">
<path d="M2.35705 5.24902L5.33505 2.03502C5.44151 1.9175 5.50047 1.76459 5.50047 1.60602C5.50047 1.44745 5.44151 1.29454 5.33505 1.17702C5.28477 1.12065 5.22314 1.07554 5.15421 1.04465C5.08527 1.01377 5.01059 0.997803 4.93505 0.997803C4.85951 0.997803 4.78483 1.01377 4.71589 1.04465C4.64696 1.07554 4.58533 1.12065 4.53505 1.17702L1.16105 4.81802C1.05843 4.93261 1.00037 5.08025 0.997432 5.23405C0.994495 5.38785 1.04688 5.53759 1.14505 5.65602L4.53305 9.32302C4.58333 9.37939 4.64496 9.4245 4.71389 9.45538C4.78283 9.48627 4.85751 9.50223 4.93305 9.50223C5.00859 9.50223 5.08327 9.48627 5.15221 9.45538C5.22114 9.4245 5.28277 9.37939 5.33305 9.32302C5.43951 9.20549 5.49847 9.05259 5.49847 8.89402C5.49847 8.73545 5.43951 8.58254 5.33305 8.46502L2.35705 5.24902Z" fill="black"/>
</svg>
