<svg width="16" height="13" viewBox="0 0 16 13" fill="none" xmlns="http://www.w3.org/2000/svg">
<path opacity="0.3" d="M8.00017 10.0002C7.09465 9.99875 6.22317 9.65489 5.56064 9.03762C4.89811 8.42034 4.49355 7.57533 4.42817 6.67217L1.80517 4.64517C1.4535 5.07667 1.14597 5.54233 0.887169 6.03517C0.829958 6.14833 0.80015 6.27336 0.80015 6.40017C0.80015 6.52697 0.829958 6.652 0.887169 6.76517C1.54823 8.08867 2.56258 9.20347 3.81796 9.98621C5.07334 10.7689 6.5208 11.1891 8.00017 11.2002C8.6576 11.1959 9.31183 11.1082 9.94717 10.9392L8.64717 9.93917C8.43378 9.97897 8.21723 9.99938 8.00017 10.0002ZM15.8452 11.4522L13.0822 9.31617C13.9217 8.60855 14.612 7.74106 15.1132 6.76417C15.1704 6.651 15.2002 6.52597 15.2002 6.39917C15.2002 6.27236 15.1704 6.14733 15.1132 6.03417C14.452 4.71086 13.4376 3.59626 12.1822 2.8137C10.9268 2.03115 9.47943 1.61115 8.00017 1.60017C6.71307 1.60142 5.44681 1.92529 4.31717 2.54217L1.13717 0.0841691C1.05347 0.0191198 0.947373 -0.0100457 0.842184 0.00307948C0.736995 0.0162046 0.641317 0.070547 0.576169 0.154169L0.0841691 0.786169C0.0191198 0.869868 -0.0100457 0.975965 0.00307948 1.08115C0.0162046 1.18634 0.070547 1.28202 0.154169 1.34717L14.8632 12.7162C14.9469 12.7812 15.053 12.8104 15.1582 12.7973C15.2633 12.7841 15.359 12.7298 15.4242 12.6462L15.9152 12.0142C15.9802 11.9305 16.0094 11.8244 15.9963 11.7192C15.9831 11.614 15.9288 11.5183 15.8452 11.4532V11.4522ZM11.2532 7.90017L10.2712 7.14117C10.4129 6.73072 10.439 6.28922 10.3468 5.86491C10.2545 5.44061 10.0474 5.04982 9.74811 4.73523C9.44881 4.42065 9.0688 4.19439 8.6496 4.08115C8.23041 3.96792 7.78816 3.97208 7.37117 4.09317C7.52096 4.29838 7.6012 4.54611 7.60017 4.80017C7.59628 4.88467 7.5832 4.9685 7.56117 5.05017L5.72117 3.62817C6.36046 3.09384 7.16699 2.80082 8.00017 2.80017C8.95495 2.80017 9.87062 3.17945 10.5458 3.85458C11.2209 4.52972 11.6002 5.44539 11.6002 6.40017C11.5968 6.91967 11.4783 7.43196 11.2532 7.90017Z" fill="black"/>
</svg>
