<svg width="17" height="11" viewBox="0 0 17 11" fill="none" xmlns="http://www.w3.org/2000/svg">
<path opacity="0.3" d="M16.0501 4.928C15.3159 3.45791 14.1893 2.21954 12.7951 1.34982C11.4009 0.480111 9.79329 0.0129486 8.15009 0C6.50694 0.0131743 4.89944 0.480429 3.50525 1.35012C2.11107 2.21981 0.984508 3.45806 0.250091 4.928C0.186627 5.05375 0.153564 5.19264 0.153564 5.3335C0.153564 5.47436 0.186627 5.61325 0.250091 5.739C0.984327 7.20909 2.11085 8.44746 3.50507 9.31718C4.89929 10.1869 6.5069 10.6541 8.15009 10.667C9.79324 10.6538 11.4007 10.1866 12.7949 9.31688C14.1891 8.4472 15.3157 7.20894 16.0501 5.739C16.1136 5.61325 16.1466 5.47436 16.1466 5.3335C16.1466 5.19264 16.1136 5.05375 16.0501 4.928ZM8.15009 9.333C7.35897 9.333 6.58561 9.0984 5.92781 8.65888C5.27001 8.21935 4.75732 7.59464 4.45457 6.86373C4.15182 6.13283 4.07261 5.32856 4.22695 4.55264C4.38129 3.77672 4.76225 3.06398 5.32166 2.50457C5.88107 1.94516 6.59381 1.5642 7.36973 1.40986C8.14565 1.25552 8.94992 1.33473 9.68083 1.63748C10.4117 1.94023 11.0364 2.45292 11.476 3.11072C11.9155 3.76852 12.1501 4.54187 12.1501 5.333C12.1501 6.39387 11.7287 7.41128 10.9785 8.16143C10.2284 8.91157 9.21096 9.333 8.15009 9.333ZM8.15009 2.667C7.91311 2.67052 7.67767 2.70583 7.45009 2.772C7.64023 3.02811 7.73191 3.34407 7.70839 3.66218C7.68487 3.98029 7.54773 4.27933 7.32199 4.5047C7.09626 4.73007 6.797 4.86673 6.47885 4.88974C6.16071 4.91274 5.8449 4.82055 5.58909 4.63C5.44307 5.16721 5.4692 5.73668 5.66382 6.25826C5.85844 6.77983 6.21174 7.22723 6.67398 7.53747C7.13622 7.84771 7.68412 8.00517 8.24054 7.98768C8.79697 7.97018 9.33389 7.77862 9.77573 7.43995C10.2176 7.10128 10.5421 6.63257 10.7035 6.0998C10.865 5.56703 10.8553 4.99704 10.6758 4.47007C10.4963 3.94309 10.1561 3.48568 9.70301 3.16223C9.24992 2.83878 8.70679 2.66557 8.15009 2.667Z" fill="black"/>
</svg>
