<svg width="24" height="24" viewBox="0 0 24 24" fill="none" xmlns="http://www.w3.org/2000/svg">
<path d="M0.204102 22.0181H14.0821V24.0001H0.204102V22.0181Z" fill="#000000"/>
<path d="M12.104 20.0188C12.104 19.756 11.9996 19.5039 11.8138 19.3181C11.6279 19.1322 11.3758 19.0278 11.113 19.0278H3.17801C2.91518 19.0278 2.66312 19.1322 2.47727 19.3181C2.29142 19.5039 2.18701 19.756 2.18701 20.0188V21.0258H12.104V20.0188Z" fill="#000000"/>
<path d="M13.692 11.91C13.23 12.4022 12.8425 12.9595 12.542 13.564L20.704 21.728C20.8898 21.9134 21.1415 22.0175 21.404 22.0175C21.6665 22.0175 21.9182 21.9134 22.104 21.728L23.504 20.328C23.6894 20.1422 23.7935 19.8905 23.7935 19.628C23.7935 19.3655 23.6894 19.1138 23.504 18.928L15.345 10.771C14.7403 11.0662 14.1832 11.4501 13.692 11.91Z" fill="#000000"/>
<path d="M8.78514 7.01C8.03546 7.70491 7.16788 8.26061 6.22314 8.651L11.3461 13.774C11.7401 12.8296 12.2969 11.9617 12.9911 11.21C13.7412 10.5153 14.6091 9.95998 15.5541 9.57L10.4301 4.448C10.0359 5.39164 9.4791 6.25878 8.78514 7.01Z" fill="#000000"/>
<path d="M12.2883 0.701727L10.8868 2.10321C10.4998 2.49022 10.4998 3.11769 10.8868 3.5047L16.4934 9.11135C16.8804 9.49836 17.5079 9.49836 17.8949 9.11135L19.2964 7.70986C19.6834 7.32285 19.6834 6.69539 19.2964 6.30838L13.6897 0.701727C13.3027 0.314717 12.6753 0.314717 12.2883 0.701727Z" fill="#000000"/>
<path d="M3.87737 9.11066L2.47589 10.5121C2.08888 10.8992 2.08888 11.5266 2.47589 11.9136L8.08254 17.5203C8.46955 17.9073 9.09702 17.9073 9.48402 17.5203L10.8855 16.1188C11.2725 15.7318 11.2725 15.1043 10.8855 14.7173L5.27886 9.11066C4.89185 8.72365 4.26438 8.72365 3.87737 9.11066Z" fill="#000000"/>
</svg>
