<svg width="19" height="19" viewBox="0 0 19 19" fill="#000" xmlns="http://www.w3.org/2000/svg">
<path d="M18.4829 13.9441L15.8309 11.2921C15.6204 11.0754 15.3578 10.9164 15.0682 10.8303C14.7786 10.7443 14.4718 10.734 14.1771 10.8006C13.8824 10.8671 13.6097 11.0082 13.3852 11.2104C13.1607 11.4126 12.9919 11.669 12.8949 11.9551C12.7445 12.3648 12.4503 12.7059 12.0671 12.9149C11.6839 13.1239 11.2378 13.1865 10.8119 13.0911C9.67941 12.6836 8.65084 12.031 7.79967 11.18C6.94849 10.329 6.29571 9.30056 5.88792 8.16813C5.77232 7.74118 5.82605 7.28608 6.0379 6.89779C6.24974 6.50949 6.60335 6.218 7.02492 6.08413C7.31106 5.98717 7.5675 5.81836 7.76966 5.59385C7.97183 5.36935 8.11295 5.09669 8.17949 4.80199C8.24604 4.5073 8.23579 4.20045 8.14971 3.91086C8.06364 3.62127 7.90463 3.35863 7.68792 3.14813L5.03592 0.500129C4.68709 0.180036 4.23087 0.00244141 3.75742 0.00244141C3.28398 0.00244141 2.82776 0.180036 2.47892 0.500129L0.679924 2.30013C-1.11908 4.19013 0.868925 9.20913 5.31992 13.6601C9.77093 18.1111 14.7899 20.1941 16.6839 18.3001L18.4839 16.5001C18.8036 16.1512 18.9808 15.6951 18.9807 15.2219C18.9805 14.7487 18.8029 14.2928 18.4829 13.9441Z" fill="#000"/>
</svg>
