<svg width="20" height="20" viewBox="0 0 20 20" fill="none" xmlns="http://www.w3.org/2000/svg">
<mask id="mask0_1_6234" style="mask-type:luminance" maskUnits="userSpaceOnUse" x="0" y="0" width="20" height="20">
<path d="M20 0H0V20H20V0Z" fill="white"/>
</mask>
<g mask="url(#mask0_1_6234)">
<path d="M17.07 2.92788C15.4339 1.29224 13.2812 0.274491 10.9788 0.0480373C8.67646 -0.178417 6.36678 0.400435 4.44333 1.68597C2.51988 2.9715 1.10166 4.88418 0.430311 7.09812C-0.241041 9.31206 -0.123989 11.6903 0.761522 13.8276C1.64703 15.9649 3.24622 17.7291 5.28661 18.8195C7.327 19.91 9.68236 20.2592 11.9514 19.8078C14.2204 19.3563 16.2627 18.1321 17.7303 16.3437C19.1979 14.5553 20 12.3134 20 9.99988C20 8.68643 19.7412 7.38585 19.2385 6.17242C18.7357 4.95899 17.9989 3.85649 17.07 2.92788ZM15.145 13.9279L14.638 14.4279C14.3158 14.7542 13.9148 14.9918 13.4739 15.118C13.033 15.2441 12.567 15.2544 12.121 15.1479C11.2073 14.905 10.3383 14.5174 9.547 13.9999C8.81236 13.5303 8.1316 12.9813 7.517 12.3629C6.9513 11.8009 6.44311 11.1838 6 10.5209C5.51537 9.80852 5.13173 9.03249 4.86 8.21488C4.70745 7.74382 4.68905 7.2396 4.80685 6.75867C4.92465 6.27774 5.17401 5.83911 5.527 5.49188L6.12 4.89988C6.15931 4.86033 6.20606 4.82895 6.25754 4.80753C6.30903 4.78612 6.36424 4.77509 6.42 4.77509C6.47576 4.77509 6.53098 4.78612 6.58246 4.80753C6.63395 4.82895 6.68069 4.86033 6.72 4.89988L8.593 6.77088C8.63255 6.81019 8.66394 6.85693 8.68535 6.90842C8.70677 6.95991 8.71779 7.01512 8.71779 7.07088C8.71779 7.12664 8.70677 7.18185 8.68535 7.23334C8.66394 7.28483 8.63255 7.33157 8.593 7.37088L7.493 8.47088C7.34087 8.62234 7.24788 8.82319 7.23083 9.03719C7.21377 9.25119 7.27377 9.46423 7.4 9.63788C7.79796 10.184 8.23832 10.6979 8.717 11.1749C9.25045 11.7108 9.83039 12.1984 10.45 12.6319C10.6233 12.7535 10.8338 12.8101 11.0447 12.7918C11.2556 12.7735 11.4533 12.6815 11.603 12.5319L12.666 11.4519C12.7053 11.4123 12.7521 11.3809 12.8035 11.3595C12.855 11.3381 12.9102 11.3271 12.966 11.3271C13.0218 11.3271 13.077 11.3381 13.1285 11.3595C13.1799 11.3809 13.2267 11.4123 13.266 11.4519L15.143 13.3319C15.2225 13.4109 15.2674 13.5183 15.2678 13.6305C15.2682 13.7426 15.224 13.8503 15.145 13.9299V13.9279Z" fill="#D70B02"/>
</g>
</svg>
