<svg width="24" height="22" viewBox="0 0 24 22" fill="none" xmlns="http://www.w3.org/2000/svg">
<path d="M8.21093 6.96694C8.12917 6.76525 7.98779 6.59332 7.80571 6.47413C7.62362 6.35494 7.40949 6.29417 7.19193 6.29994C6.97493 6.29994 6.95493 6.30594 6.82593 6.30594H2.95093C2.73246 6.29045 2.51489 6.34646 2.33106 6.46553C2.14723 6.58459 2.00714 6.76024 1.93193 6.96594L0.0579323 12.6659C-0.0289489 12.8966 -0.0210302 13.1523 0.0799591 13.3771C0.180948 13.6019 0.366802 13.7777 0.596932 13.8659C0.710415 13.9086 0.831219 13.9283 0.95237 13.924C1.07352 13.9197 1.19262 13.8915 1.30279 13.8409C1.41297 13.7903 1.51203 13.7184 1.59427 13.6293C1.67651 13.5403 1.74029 13.4358 1.78193 13.3219L2.28193 11.9809C2.28193 11.9809 2.31793 11.8459 2.31793 12.4359V20.3459C2.31793 20.6748 2.44857 20.9902 2.68112 21.2227C2.91367 21.4553 3.22906 21.5859 3.55793 21.5859C3.8868 21.5859 4.2022 21.4553 4.43474 21.2227C4.66729 20.9902 4.79793 20.6748 4.79793 20.3459V15.1749C4.79682 15.169 4.7971 15.1629 4.79876 15.1571C4.80041 15.1513 4.80339 15.1459 4.80747 15.1415C4.81154 15.137 4.81659 15.1336 4.82222 15.1314C4.82786 15.1292 4.83392 15.1284 4.83993 15.1289H5.29993C5.30588 15.1288 5.3118 15.1299 5.3173 15.1322C5.3228 15.1345 5.32774 15.1379 5.33181 15.1422C5.33587 15.1466 5.33897 15.1518 5.34089 15.1574C5.3428 15.163 5.3435 15.169 5.34293 15.1749V20.3419C5.34293 20.6708 5.47358 20.9862 5.70612 21.2187C5.93866 21.4513 6.25406 21.5819 6.58293 21.5819C6.9118 21.5819 7.2272 21.4513 7.45974 21.2187C7.69229 20.9862 7.82293 20.6708 7.82293 20.3419V12.4319C7.82293 11.8319 7.87493 12.0209 7.87493 12.0209L8.35693 13.3209C8.39858 13.4348 8.46236 13.5393 8.54459 13.6283C8.62683 13.7174 8.7259 13.7893 8.83607 13.8399C8.94624 13.8905 9.06534 13.9187 9.18649 13.923C9.30765 13.9273 9.42845 13.9076 9.54193 13.8649C9.77206 13.7767 9.95792 13.6009 10.0589 13.3761C10.1599 13.1513 10.1678 12.8956 10.0809 12.6649L8.21093 6.96694Z" fill="url(#paint0_linear_1_4841)"/>
<path d="M5.09681 5.67601C6.567 5.67601 7.75881 4.49628 7.75881 3.04101C7.75881 1.58574 6.567 0.406006 5.09681 0.406006C3.62663 0.406006 2.43481 1.58574 2.43481 3.04101C2.43481 4.49628 3.62663 5.67601 5.09681 5.67601Z" fill="url(#paint1_linear_1_4841)"/>
<path d="M18.6779 5.68704C20.1481 5.68704 21.3399 4.49522 21.3399 3.02504C21.3399 1.55485 20.1481 0.363037 18.6779 0.363037C17.2077 0.363037 16.0159 1.55485 16.0159 3.02504C16.0159 4.49522 17.2077 5.68704 18.6779 5.68704Z" fill="url(#paint2_linear_1_4841)"/>
<path d="M23.9119 12.54L21.6409 7.007C21.5109 6.728 21.3959 6.354 20.8619 6.354H16.8309C16.6231 6.35541 16.4205 6.41891 16.2491 6.53634C16.0776 6.65377 15.9452 6.81976 15.8689 7.013L13.5099 12.5C13.4018 12.7207 13.3851 12.9752 13.4636 13.2082C13.5421 13.4411 13.7093 13.6336 13.9289 13.744C14.0376 13.7976 14.1559 13.8292 14.277 13.8368C14.398 13.8445 14.5193 13.828 14.634 13.7885C14.7486 13.749 14.8543 13.6872 14.9449 13.6066C15.0355 13.526 15.1093 13.4283 15.1619 13.319L15.3399 12.955C15.3399 12.955 15.3949 12.855 15.3739 12.965C15.2459 13.641 14.8909 15.675 14.8909 15.675C14.8667 15.7687 14.865 15.8668 14.8858 15.9614C14.9066 16.0559 14.9493 16.1442 15.0106 16.2191C15.0718 16.2941 15.1498 16.3536 15.2383 16.3928C15.3267 16.4321 15.4232 16.4499 15.5199 16.445H16.5469C16.6209 16.445 16.6069 16.5 16.6069 16.5V20.589C16.5947 20.7215 16.6103 20.8551 16.6527 20.9812C16.6951 21.1073 16.7633 21.2232 16.8529 21.3215C16.9426 21.4197 17.0518 21.4982 17.1735 21.552C17.2952 21.6057 17.4268 21.6334 17.5599 21.6334C17.6929 21.6334 17.8245 21.6057 17.9462 21.552C18.0679 21.4982 18.1771 21.4197 18.2668 21.3215C18.3565 21.2232 18.4247 21.1073 18.4671 20.9812C18.5094 20.8551 18.525 20.7215 18.5129 20.589V16.489C18.5126 16.4836 18.5134 16.4782 18.5154 16.4732C18.5174 16.4682 18.5204 16.4637 18.5243 16.46C18.5282 16.4563 18.5329 16.4534 18.538 16.4517C18.5431 16.45 18.5485 16.4494 18.5539 16.45C18.6089 16.45 18.7539 16.45 18.8119 16.45C18.8479 16.45 18.8429 16.493 18.8429 16.493V20.593C18.8307 20.7255 18.8463 20.8591 18.8887 20.9852C18.9311 21.1113 18.9993 21.2272 19.0889 21.3255C19.1786 21.4237 19.2878 21.5022 19.4095 21.556C19.5312 21.6097 19.6628 21.6374 19.7959 21.6374C19.9289 21.6374 20.0605 21.6097 20.1822 21.556C20.3039 21.5022 20.4131 21.4237 20.5028 21.3255C20.5925 21.2272 20.6607 21.1113 20.7031 20.9852C20.7454 20.8591 20.761 20.7255 20.7489 20.593V16.515C20.7489 16.515 20.7429 16.449 20.8219 16.449H21.9269C22.0242 16.4533 22.1212 16.4351 22.2103 16.3958C22.2994 16.3564 22.3782 16.297 22.4405 16.2222C22.5029 16.1473 22.5471 16.0591 22.5697 15.9644C22.5923 15.8696 22.5927 15.7709 22.5709 15.676C22.5709 15.676 22.2159 13.494 22.1209 12.9C22.0939 12.73 22.3769 13.335 22.3769 13.335C22.4127 13.4413 22.4711 13.5386 22.5481 13.6201C22.6251 13.7017 22.7188 13.7656 22.8229 13.8075C22.9269 13.8494 23.0388 13.8683 23.1508 13.8629C23.2629 13.8574 23.3724 13.8278 23.4719 13.776C23.6931 13.6694 23.8634 13.4798 23.9458 13.2484C24.0282 13.017 24.016 12.7625 23.9119 12.54Z" fill="url(#paint3_linear_1_4841)"/>
<path d="M12.4451 21.1371C12.4445 21.2581 12.3962 21.374 12.3106 21.4596C12.225 21.5452 12.1091 21.5935 11.9881 21.5941H11.7881C11.667 21.5935 11.5511 21.5452 11.4655 21.4596C11.3799 21.374 11.3316 21.2581 11.3311 21.1371V1.10007C11.3316 0.979024 11.3799 0.86309 11.4655 0.7775C11.5511 0.69191 11.667 0.643593 11.7881 0.643066H11.9881C12.1091 0.643593 12.225 0.69191 12.3106 0.7775C12.3962 0.86309 12.4445 0.979024 12.4451 1.10007V21.1371Z" fill="url(#paint4_linear_1_4841)"/>
<defs>
<linearGradient id="paint0_linear_1_4841" x1="5.06943" y1="6.29956" x2="5.06943" y2="21.5859" gradientUnits="userSpaceOnUse">
<stop stop-color="#171717"/>
<stop offset="1" stop-color="#303030"/>
</linearGradient>
<linearGradient id="paint1_linear_1_4841" x1="5.09681" y1="0.406006" x2="5.09681" y2="5.67601" gradientUnits="userSpaceOnUse">
<stop stop-color="#171717"/>
<stop offset="1" stop-color="#303030"/>
</linearGradient>
<linearGradient id="paint2_linear_1_4841" x1="18.6779" y1="0.363037" x2="18.6779" y2="5.68704" gradientUnits="userSpaceOnUse">
<stop stop-color="#171717"/>
<stop offset="1" stop-color="#303030"/>
</linearGradient>
<linearGradient id="paint3_linear_1_4841" x1="18.7073" y1="6.354" x2="18.7073" y2="21.6374" gradientUnits="userSpaceOnUse">
<stop stop-color="#171717"/>
<stop offset="1" stop-color="#303030"/>
</linearGradient>
<linearGradient id="paint4_linear_1_4841" x1="11.8881" y1="0.643066" x2="11.8881" y2="21.5941" gradientUnits="userSpaceOnUse">
<stop stop-color="#171717"/>
<stop offset="1" stop-color="#303030"/>
</linearGradient>
</defs>
</svg>
