<svg width="18" height="18" viewBox="0 0 18 18" fill="none" xmlns="http://www.w3.org/2000/svg">
<path d="M11 0H7C3.13401 0 0 3.13401 0 7V11C0 14.866 3.13401 18 7 18H11C14.866 18 18 14.866 18 11V7C18 3.13401 14.866 0 11 0Z" fill="#52B925"/>
<path d="M14.2621 6.09676L13.4451 5.25576C13.4285 5.23794 13.4084 5.22376 13.386 5.21412C13.3636 5.20448 13.3395 5.19959 13.3151 5.19976C13.2907 5.19914 13.2664 5.20383 13.244 5.2135C13.2215 5.22316 13.2014 5.23758 13.1851 5.25576L7.5191 10.9628L5.4571 8.90076C5.4403 8.88322 5.42012 8.86925 5.39778 8.85972C5.37544 8.85018 5.35139 8.84526 5.3271 8.84526C5.30281 8.84526 5.27877 8.85018 5.25642 8.85972C5.23408 8.86925 5.2139 8.88322 5.1971 8.90076L4.3701 9.72776C4.35241 9.745 4.33835 9.7656 4.32875 9.78836C4.31915 9.81112 4.31421 9.83556 4.31421 9.86026C4.31421 9.88496 4.31915 9.90941 4.32875 9.93217C4.33835 9.95492 4.35241 9.97553 4.3701 9.99276L6.9701 12.5928C7.1109 12.7468 7.30502 12.8416 7.5131 12.8578C7.71738 12.8396 7.90849 12.7492 8.0521 12.6028L14.2611 6.36176C14.2936 6.32532 14.3116 6.27826 14.3118 6.22945C14.312 6.18064 14.2943 6.13345 14.2621 6.09676Z" fill="white"/>
</svg>
