<svg width="23" height="23" viewBox="0 0 23 23" fill="none" xmlns="http://www.w3.org/2000/svg">
<path opacity="0.4" d="M15.838 0H19.933C20.3377 0.00170359 20.738 0.0830841 21.1111 0.239495C21.4843 0.395905 21.823 0.624283 22.1078 0.911588C22.3927 1.19889 22.6182 1.5395 22.7715 1.91396C22.9248 2.28842 23.0028 2.6894 23.001 3.094V7.222C23.0028 7.6266 22.9248 8.02758 22.7715 8.40204C22.6182 8.7765 22.3927 9.11711 22.1078 9.40441C21.823 9.69172 21.4843 9.92009 21.1111 10.0765C20.738 10.2329 20.3377 10.3143 19.933 10.316H15.838C15.4334 10.3143 15.0331 10.2329 14.66 10.0765C14.2868 9.92009 13.9481 9.69172 13.6633 9.40441C13.3784 9.11711 13.1528 8.7765 12.9996 8.40204C12.8463 8.02758 12.7683 7.6266 12.77 7.222V3.094C12.7683 2.6894 12.8463 2.28842 12.9996 1.91396C13.1528 1.5395 13.3784 1.19889 13.6633 0.911588C13.9481 0.624283 14.2868 0.395905 14.66 0.239495C15.0331 0.0830841 15.4334 0.00170359 15.838 0Z" fill="#E03C16"/>
<path fill-rule="evenodd" clip-rule="evenodd" d="M2.91903 0H6.81303C7.19802 0.00157242 7.57893 0.0789763 7.934 0.22779C8.28907 0.376604 8.61134 0.593912 8.88241 0.867302C9.15347 1.14069 9.36803 1.46481 9.51381 1.82113C9.65959 2.17746 9.73374 2.55901 9.73203 2.944V6.871C9.73374 7.25599 9.65959 7.63754 9.51381 7.99387C9.36803 8.35019 9.15347 8.67431 8.88241 8.9477C8.61134 9.22109 8.28907 9.4384 7.934 9.58721C7.57893 9.73602 7.19802 9.81343 6.81303 9.815H2.91903C2.53404 9.81343 2.15313 9.73602 1.79806 9.58721C1.44299 9.4384 1.12072 9.22109 0.849652 8.9477C0.578584 8.67431 0.364032 8.35019 0.218251 7.99387C0.0724709 7.63754 -0.00168185 7.25599 2.89409e-05 6.871V2.944C-0.00168185 2.55901 0.0724709 2.17746 0.218251 1.82113C0.364032 1.46481 0.578584 1.14069 0.849652 0.867302C1.12072 0.593912 1.44299 0.376604 1.79806 0.22779C2.15313 0.0789763 2.53404 0.00157242 2.91903 0ZM2.91903 13.185H6.81303C7.19802 13.1866 7.57893 13.264 7.934 13.4128C8.28907 13.5616 8.61134 13.7789 8.88241 14.0523C9.15347 14.3257 9.36803 14.6498 9.51381 15.0061C9.65959 15.3625 9.73374 15.744 9.73203 16.129V20.056C9.73522 20.8334 9.4295 21.5803 8.88211 22.1324C8.33472 22.6845 7.59047 22.9966 6.81303 23H2.91903C2.14159 22.9966 1.39734 22.6845 0.849946 22.1324C0.302554 21.5803 -0.0031606 20.8334 2.89409e-05 20.056V16.129C-0.00168185 15.744 0.0724709 15.3625 0.218251 15.0061C0.364032 14.6498 0.578584 14.3257 0.849652 14.0523C1.12072 13.7789 1.44299 13.5616 1.79806 13.4128C2.15313 13.264 2.53404 13.1866 2.91903 13.185ZM20.08 13.185H16.187C15.802 13.1866 15.4211 13.264 15.0661 13.4128C14.711 13.5616 14.3887 13.7789 14.1177 14.0523C13.8466 14.3257 13.632 14.6498 13.4863 15.0061C13.3405 15.3625 13.2663 15.744 13.268 16.129V20.056C13.2648 20.8334 13.5706 21.5803 14.1179 22.1324C14.6653 22.6845 15.4096 22.9966 16.187 23H20.081C20.8585 22.9966 21.6027 22.6845 22.1501 22.1324C22.6975 21.5803 23.0032 20.8334 23 20.056V16.129C23.0017 15.744 22.9276 15.3625 22.7818 15.0061C22.636 14.6498 22.4215 14.3257 22.1504 14.0523C21.8793 13.7789 21.5571 13.5616 21.202 13.4128C20.8469 13.264 20.465 13.1866 20.08 13.185Z" fill="#E03C16"/>
</svg>
