<svg width="23" height="21" viewBox="0 0 23 21" fill="none" xmlns="http://www.w3.org/2000/svg">
<path fill-rule="evenodd" clip-rule="evenodd" d="M23 6.181H18.13C17.5942 6.16634 17.061 6.25921 16.5617 6.45412C16.0624 6.64902 15.6073 6.94201 15.2232 7.31578C14.839 7.68954 14.5337 8.1365 14.3252 8.63026C14.1167 9.12401 14.0093 9.65454 14.0093 10.1905C14.0093 10.7265 14.1167 11.257 14.3252 11.7507C14.5337 12.2445 14.839 12.6915 15.2232 13.0652C15.6073 13.439 16.0624 13.732 16.5617 13.9269C17.061 14.1218 17.5942 14.2147 18.13 14.2H23V14.552C23 18.415 20.658 20.7 16.695 20.7H6.306C2.342 20.7 0 18.416 0 14.552V6.139C0 2.275 2.342 0 6.306 0H16.691C20.654 0 23 2.275 23 6.139V6.181ZM5.45 6.172H11.95C12.0627 6.17147 12.1741 6.14876 12.278 6.10516C12.3819 6.06155 12.4762 5.99791 12.5555 5.91787C12.6348 5.83783 12.6976 5.74295 12.7402 5.63865C12.7829 5.53435 12.8045 5.42267 12.804 5.31C12.8035 5.19733 12.7808 5.08586 12.7372 4.98196C12.6936 4.87807 12.6299 4.78378 12.5499 4.70447C12.4698 4.62517 12.3749 4.56241 12.2706 4.51978C12.1663 4.47715 12.0547 4.45547 11.942 4.456H5.45C5.22244 4.456 5.00421 4.5464 4.8433 4.7073C4.6824 4.86821 4.592 5.08644 4.592 5.314C4.592 5.54156 4.6824 5.75979 4.8433 5.9207C5.00421 6.0816 5.22244 6.172 5.45 6.172Z" fill="#C6C6C6"/>
<path opacity="0.4" d="M17.0369 10.6315C17.1336 11.0884 17.3858 11.4977 17.7506 11.7894C18.1153 12.0812 18.5699 12.2374 19.0369 12.2315H22.2869C22.4786 12.228 22.6612 12.149 22.7947 12.0114C22.9283 11.8739 23.0021 11.6892 22.9999 11.4975V8.96547C23.0018 8.7729 22.9273 8.58744 22.7927 8.44968C22.6582 8.31193 22.4745 8.2331 22.2819 8.23047H18.9559C18.43 8.23811 17.9286 8.45419 17.5618 8.83125C17.1951 9.2083 16.993 9.71551 16.9999 10.2415C16.9997 10.3724 17.0121 10.503 17.0369 10.6315Z" fill="#C6C6C6"/>
<path d="M18.5 11.2334C19.0523 11.2334 19.5 10.7857 19.5 10.2334C19.5 9.68111 19.0523 9.2334 18.5 9.2334C17.9477 9.2334 17.5 9.68111 17.5 10.2334C17.5 10.7857 17.9477 11.2334 18.5 11.2334Z" fill="#C6C6C6"/>
</svg>
