<svg width="23" height="23" viewBox="0 0 23 23" fill="none" xmlns="http://www.w3.org/2000/svg">
<path opacity="0.4" d="M16.491 0H6.521C2.622 0 0 2.737 0 6.808V16.208C0 20.263 2.622 23 6.521 23H16.491C20.39 23 23 20.263 23 16.2V6.8C23 2.737 20.39 0 16.491 0Z" fill="#C6C6C6"/>
<path fill-rule="evenodd" clip-rule="evenodd" d="M5.838 10.3002C5.47889 10.2633 5.11958 10.3681 4.83659 10.5923C4.55361 10.8164 4.36933 11.1422 4.323 11.5002C4.36957 11.8581 4.55392 12.1837 4.83684 12.4078C5.11976 12.6319 5.47894 12.7368 5.838 12.7002C6.19689 12.7365 6.55582 12.6315 6.83852 12.4075C7.12122 12.1834 7.30542 11.8579 7.352 11.5002C7.30566 11.1424 7.12152 10.8168 6.83876 10.5927C6.556 10.3685 6.19694 10.2636 5.838 10.3002ZM11.5 10.3002C11.1411 10.2636 10.782 10.3685 10.4992 10.5927C10.2165 10.8168 10.0323 11.1424 9.986 11.5002C10.0326 11.8579 10.2168 12.1834 10.4995 12.4075C10.7822 12.6315 11.1411 12.7365 11.5 12.7002C11.8591 12.7368 12.2182 12.6319 12.5012 12.4078C12.7841 12.1837 12.9684 11.8581 13.015 11.5002C12.9687 11.1422 12.7844 10.8164 12.5014 10.5923C12.2184 10.3681 11.8591 10.2633 11.5 10.3002ZM15.649 11.5002C15.6953 11.1422 15.8796 10.8164 16.1626 10.5923C16.4456 10.3681 16.8049 10.2633 17.164 10.3002C17.5229 10.2636 17.882 10.3685 18.1648 10.5927C18.4475 10.8168 18.6317 11.1424 18.678 11.5002C18.6314 11.8581 18.4471 12.1837 18.1642 12.4078C17.8812 12.6319 17.5221 12.7368 17.163 12.7002C16.8041 12.7365 16.4452 12.6315 16.1625 12.4075C15.8798 12.1834 15.6956 11.8579 15.649 11.5002Z" fill="#C6C6C6"/>
</svg>
