<svg width="23" height="23" viewBox="0 0 23 23" fill="none" xmlns="http://www.w3.org/2000/svg">
<path fill-rule="evenodd" clip-rule="evenodd" d="M15.45 2.86C15.4479 3.54939 15.5983 4.23072 15.8902 4.85524C16.1822 5.47975 16.6086 6.03202 17.1389 6.47251C17.6693 6.91301 18.2904 7.23085 18.9579 7.40329C19.6253 7.57573 20.3227 7.59851 21 7.47V16.77C21 20.685 18.692 23 14.773 23H6.237C2.308 23 0 20.685 0 16.772V8.249C0 4.336 2.308 2 6.237 2H15.532C15.4769 2.28334 15.4495 2.57136 15.45 2.86ZM13.008 14.713L16.342 10.413V10.39C16.4793 10.2056 16.539 9.97489 16.5083 9.74709C16.4777 9.51929 16.3591 9.31252 16.178 9.171C16.0877 9.1012 15.9844 9.05025 15.874 9.02116C15.7637 8.99208 15.6486 8.98545 15.5357 9.00168C15.4227 9.01791 15.3142 9.05666 15.2165 9.11564C15.1188 9.17461 15.034 9.25261 14.967 9.345L12.156 12.961L8.956 10.441C8.86553 10.3704 8.76188 10.3186 8.65113 10.2886C8.54037 10.2586 8.42474 10.251 8.31102 10.2663C8.1973 10.2816 8.08777 10.3194 7.98886 10.3776C7.88994 10.4357 7.80364 10.513 7.735 10.605L4.288 15.051C4.16673 15.202 4.10137 15.3903 4.103 15.584C4.0942 15.7741 4.14852 15.9617 4.2575 16.1176C4.36648 16.2736 4.524 16.3891 4.70549 16.4462C4.88699 16.5032 5.08227 16.4987 5.26089 16.4332C5.43951 16.3677 5.59144 16.2449 5.693 16.084L8.576 12.355L11.776 14.865C11.8662 14.9376 11.97 14.9912 12.0814 15.0228C12.1927 15.0545 12.3093 15.0633 12.4241 15.049C12.539 15.0346 12.6498 14.9973 12.7499 14.9392C12.85 14.8812 12.9375 14.8035 13.007 14.711L13.008 14.713Z" fill="#C6C6C6"/>
<path opacity="0.4" d="M20.5 5C21.8807 5 23 3.88071 23 2.5C23 1.11929 21.8807 0 20.5 0C19.1193 0 18 1.11929 18 2.5C18 3.88071 19.1193 5 20.5 5Z" fill="#C6C6C6"/>
</svg>
