<svg width="131" height="18" viewBox="0 0 131 18" fill="none" xmlns="http://www.w3.org/2000/svg">
<path d="M0.814 11.984C0.814 10.5467 1.24667 9.39533 2.112 8.53C2.97733 7.66467 4.04067 7.04867 5.302 6.682C6.25533 6.418 6.952 6.12467 7.392 5.802C7.832 5.46467 8.052 5.08333 8.052 4.658C8.052 4.42333 7.986 4.21067 7.854 4.02C7.73667 3.81467 7.56067 3.65333 7.326 3.536C7.106 3.404 6.84933 3.338 6.556 3.338C6.10133 3.338 5.72733 3.492 5.434 3.8C5.15533 4.09333 5.016 4.47467 5.016 4.944H1.716C1.716 4.196 1.92867 3.514 2.354 2.898C2.77933 2.282 3.35867 1.798 4.092 1.446C4.82533 1.094 5.632 0.918 6.512 0.918C7.42133 0.918 8.228 1.072 8.932 1.38C9.65067 1.688 10.208 2.11333 10.604 2.656C11 3.19867 11.198 3.8 11.198 4.46C11.198 5.13467 11.0073 5.69933 10.626 6.154C10.2593 6.594 9.76067 6.946 9.13 7.21V7.32C9.86333 7.48133 10.5087 7.782 11.066 8.222C11.6233 8.662 12.0487 9.212 12.342 9.872C12.65 10.5173 12.804 11.2213 12.804 11.984C12.804 13.128 12.5327 14.1033 11.99 14.91C11.4473 15.7167 10.7213 16.3327 9.812 16.758C8.90267 17.1687 7.898 17.374 6.798 17.374C5.71267 17.374 4.71533 17.1687 3.806 16.758C2.89667 16.3327 2.17067 15.7167 1.628 14.91C1.08533 14.1033 0.814 13.128 0.814 11.984ZM9.416 11.94C9.416 11.3387 9.306 10.818 9.086 10.378C8.866 9.92333 8.558 9.57867 8.162 9.344C7.766 9.10933 7.31133 8.992 6.798 8.992C6.29933 8.992 5.852 9.10933 5.456 9.344C5.07467 9.57867 4.774 9.92333 4.554 10.378C4.334 10.818 4.224 11.3387 4.224 11.94C4.224 12.512 4.334 13.0107 4.554 13.436C4.774 13.8613 5.07467 14.1913 5.456 14.426C5.852 14.6607 6.29933 14.778 6.798 14.778C7.31133 14.778 7.766 14.6607 8.162 14.426C8.558 14.1913 8.866 13.8613 9.086 13.436C9.306 13.0107 9.416 12.512 9.416 11.94ZM14.2811 12.05C14.2811 11.1847 14.4791 10.3267 14.8751 9.476H18.1751C17.8671 10.312 17.7131 11.104 17.7131 11.852C17.7131 12.4093 17.8084 12.908 17.9991 13.348C18.2044 13.788 18.4904 14.14 18.8571 14.404C19.2238 14.6533 19.6638 14.778 20.1771 14.778C20.6904 14.778 21.1304 14.6533 21.4971 14.404C21.8784 14.1547 22.1644 13.81 22.3551 13.37C22.5458 12.93 22.6411 12.4313 22.6411 11.874C22.6411 11.1847 22.5311 10.5687 22.3111 10.026C22.1058 9.48333 21.8564 9.02133 21.5631 8.64C21.2698 8.25867 20.8591 7.782 20.3311 7.21C19.8471 6.682 19.4438 6.18333 19.1211 5.714C18.8131 5.23 18.5491 4.62867 18.3291 3.91C18.1238 3.17667 18.0211 2.304 18.0211 1.292H21.4531C21.4531 1.952 21.5338 2.53867 21.6951 3.052C21.8564 3.56533 22.0618 4.02733 22.3111 4.438C22.5751 4.84867 22.9051 5.28867 23.3011 5.758C23.9171 6.506 24.4011 7.12933 24.7531 7.628C25.1051 8.12667 25.4131 8.75 25.6771 9.498C25.9411 10.2313 26.0731 11.082 26.0731 12.05C26.0731 13.062 25.8164 13.9787 25.3031 14.8C24.7898 15.6067 24.0784 16.2373 23.1691 16.692C22.2744 17.1467 21.2624 17.374 20.1331 17.374C19.0038 17.374 17.9918 17.1467 17.0971 16.692C16.2171 16.2373 15.5278 15.6067 15.0291 14.8C14.5304 13.9787 14.2811 13.062 14.2811 12.05ZM27.7124 11.808C27.7124 10.7227 27.9251 9.77667 28.3504 8.97C28.7758 8.16333 29.3624 7.54 30.1104 7.1C30.8584 6.66 31.6944 6.44 32.6184 6.44C33.3518 6.44 34.0411 6.57933 34.6864 6.858C35.3318 7.13667 35.8304 7.52533 36.1824 8.024H36.2264V6.044C36.2264 5.17867 35.9991 4.54067 35.5444 4.13C35.1044 3.71933 34.5178 3.514 33.7844 3.514C33.2271 3.514 32.7504 3.66067 32.3544 3.954C31.9731 4.24733 31.7458 4.62867 31.6724 5.098H28.2184C28.2331 4.45267 28.4678 3.80733 28.9224 3.162C29.3771 2.51667 30.0224 1.98133 30.8584 1.556C31.6944 1.13067 32.6624 0.918 33.7624 0.918C34.9651 0.918 36.0064 1.12333 36.8864 1.534C37.7664 1.93 38.4484 2.50933 38.9324 3.272C39.4164 4.02 39.6584 4.91467 39.6584 5.956V11.83C39.6584 12.886 39.4091 13.8393 38.9104 14.69C38.4264 15.526 37.7298 16.186 36.8204 16.67C35.9111 17.1393 34.8624 17.374 33.6744 17.374C32.5011 17.374 31.4598 17.1393 30.5504 16.67C29.6558 16.186 28.9591 15.5187 28.4604 14.668C27.9618 13.8173 27.7124 12.864 27.7124 11.808ZM36.3144 11.918C36.3144 11.3313 36.2044 10.8253 35.9844 10.4C35.7644 9.96 35.4564 9.62267 35.0604 9.388C34.6644 9.15333 34.2098 9.036 33.6964 9.036C33.1978 9.036 32.7504 9.15333 32.3544 9.388C31.9731 9.62267 31.6724 9.96 31.4524 10.4C31.2471 10.8253 31.1444 11.3313 31.1444 11.918C31.1444 12.49 31.2544 12.996 31.4744 13.436C31.6944 13.8613 31.9951 14.1913 32.3764 14.426C32.7724 14.6607 33.2124 14.778 33.6964 14.778C34.1951 14.778 34.6424 14.6607 35.0384 14.426C35.4344 14.1913 35.7424 13.8613 35.9624 13.436C36.1971 12.996 36.3144 12.49 36.3144 11.918ZM41.5233 12.05C41.5233 11.1847 41.7213 10.3267 42.1173 9.476H45.4173C45.1093 10.312 44.9553 11.104 44.9553 11.852C44.9553 12.4093 45.0506 12.908 45.2413 13.348C45.4466 13.788 45.7326 14.14 46.0993 14.404C46.4659 14.6533 46.9059 14.778 47.4193 14.778C47.9326 14.778 48.3726 14.6533 48.7393 14.404C49.1206 14.1547 49.4066 13.81 49.5973 13.37C49.7879 12.93 49.8833 12.4313 49.8833 11.874C49.8833 11.1847 49.7733 10.5687 49.5533 10.026C49.3479 9.48333 49.0986 9.02133 48.8053 8.64C48.5119 8.25867 48.1013 7.782 47.5733 7.21C47.0893 6.682 46.6859 6.18333 46.3633 5.714C46.0553 5.23 45.7913 4.62867 45.5713 3.91C45.3659 3.17667 45.2633 2.304 45.2633 1.292H48.6953C48.6953 1.952 48.7759 2.53867 48.9373 3.052C49.0986 3.56533 49.3039 4.02733 49.5533 4.438C49.8173 4.84867 50.1473 5.28867 50.5433 5.758C51.1593 6.506 51.6433 7.12933 51.9953 7.628C52.3473 8.12667 52.6553 8.75 52.9193 9.498C53.1833 10.2313 53.3153 11.082 53.3153 12.05C53.3153 13.062 53.0586 13.9787 52.5453 14.8C52.0319 15.6067 51.3206 16.2373 50.4113 16.692C49.5166 17.1467 48.5046 17.374 47.3753 17.374C46.2459 17.374 45.2339 17.1467 44.3393 16.692C43.4593 16.2373 42.7699 15.6067 42.2713 14.8C41.7726 13.9787 41.5233 13.062 41.5233 12.05ZM67.6486 11.676C67.6486 10.7227 67.4946 10.0113 67.1866 9.542C66.8786 9.07267 66.468 8.838 65.9546 8.838C65.5146 8.838 65.1626 9.036 64.8986 9.432C64.6346 9.81333 64.5026 10.3267 64.5026 10.972V14.206H61.5106V10.994C61.5106 10.3193 61.3786 9.79133 61.1146 9.41C60.8653 9.02867 60.5206 8.838 60.0806 8.838C59.582 8.838 59.1713 9.058 58.8486 9.498C58.526 9.938 58.3646 10.6493 58.3646 11.632C58.3646 13.5533 58.856 15.3427 59.8386 17H56.5386C56.0253 16.208 55.6293 15.2987 55.3506 14.272C55.0866 13.2453 54.9546 11.9327 54.9546 10.334C54.9546 7.79667 55.556 5.91933 56.7586 4.702C57.9613 3.48467 59.5526 2.69267 61.5326 2.326L63.3806 1.974C63.6886 1.91533 63.9453 1.83467 64.1506 1.732C64.356 1.62933 64.4953 1.48267 64.5686 1.292H67.9786C67.8906 2.15733 67.5753 2.854 67.0326 3.382C66.49 3.89533 65.6246 4.24 64.4366 4.416L62.5446 4.702C61.1953 4.90733 60.066 5.23733 59.1566 5.692C58.262 6.14667 57.712 6.836 57.5066 7.76H57.5726C57.8953 7.276 58.306 6.924 58.8046 6.704C59.318 6.46933 59.8093 6.352 60.2786 6.352C60.8506 6.352 61.386 6.51333 61.8846 6.836C62.3833 7.15867 62.7646 7.62067 63.0286 8.222H63.0946C63.4173 7.606 63.872 7.144 64.4586 6.836C65.06 6.51333 65.7346 6.352 66.4826 6.352C67.3186 6.352 68.0813 6.55733 68.7706 6.968C69.4746 7.37867 70.032 7.96533 70.4426 8.728C70.8533 9.49067 71.0586 10.3927 71.0586 11.434C71.0586 12.622 70.9193 13.6633 70.6406 14.558C70.362 15.438 69.9733 16.252 69.4746 17H66.1746C66.6586 16.1493 67.0253 15.306 67.2746 14.47C67.524 13.6193 67.6486 12.688 67.6486 11.676ZM72.5912 12.776C72.5912 12.3213 72.6792 11.874 72.8552 11.434H76.1332C76.0452 11.8447 76.0012 12.182 76.0012 12.446C76.0012 12.9007 76.1039 13.304 76.3092 13.656C76.5146 14.008 76.8079 14.2867 77.1892 14.492C77.5706 14.6827 78.0179 14.778 78.5312 14.778C79.0152 14.778 79.4406 14.6827 79.8072 14.492C80.1886 14.2867 80.4819 14.0007 80.6872 13.634C80.8926 13.2527 80.9952 12.8053 80.9952 12.292C80.9952 11.7347 80.8852 11.258 80.6652 10.862C80.4599 10.4513 80.1592 10.1433 79.7632 9.938C79.3819 9.718 78.9419 9.608 78.4432 9.608H76.8372V5.428H72.8552V3.096H76.8372V1.138H79.9172V3.096H83.8772V5.428H79.9172V7.232C80.7826 7.364 81.5526 7.65733 82.2272 8.112C82.9166 8.552 83.4592 9.146 83.8552 9.894C84.2512 10.642 84.4492 11.5 84.4492 12.468C84.4492 13.4067 84.1852 14.25 83.6572 14.998C83.1292 15.746 82.4106 16.3327 81.5012 16.758C80.6066 17.1687 79.6166 17.374 78.5312 17.374C77.4019 17.374 76.3899 17.1907 75.4952 16.824C74.6006 16.4573 73.8892 15.9293 73.3612 15.24C72.8479 14.536 72.5912 13.7147 72.5912 12.776ZM99.837 9.872V6.616C99.837 5.58933 99.6757 4.81933 99.353 4.306C99.0304 3.778 98.5757 3.514 97.989 3.514C97.505 3.514 97.109 3.72667 96.801 4.152C96.5077 4.56267 96.361 5.15667 96.361 5.934V12.534H93.259V5.934C93.259 5.15667 93.1124 4.56267 92.819 4.152C92.5257 3.72667 92.1224 3.514 91.609 3.514C91.0517 3.514 90.6044 3.778 90.267 4.306C89.9444 4.81933 89.783 5.582 89.783 6.594V9.872C89.783 11.104 89.9297 12.3947 90.223 13.744C90.531 15.0933 90.9197 16.1787 91.389 17H88.001C87.7077 16.516 87.4364 15.8927 87.187 15.13C86.9377 14.3673 86.7397 13.524 86.593 12.6C86.4464 11.676 86.373 10.752 86.373 9.828V6.572C86.373 5.44267 86.5784 4.45267 86.989 3.602C87.4144 2.75133 87.9864 2.09133 88.705 1.622C89.4384 1.15267 90.2597 0.918 91.169 0.918C91.9904 0.918 92.7164 1.094 93.347 1.446C93.9924 1.798 94.4617 2.31867 94.755 3.008H94.843C95.1364 2.31867 95.6057 1.798 96.251 1.446C96.8964 1.094 97.615 0.918 98.407 0.918C99.3457 0.918 100.182 1.14533 100.915 1.6C101.648 2.05467 102.22 2.70733 102.631 3.558C103.042 4.40867 103.247 5.41333 103.247 6.572V9.828C103.247 10.752 103.174 11.676 103.027 12.6C102.88 13.524 102.682 14.3673 102.433 15.13C102.184 15.8927 101.905 16.516 101.597 17H98.187C98.671 16.164 99.067 15.0787 99.375 13.744C99.683 12.4093 99.837 11.1187 99.837 9.872ZM105.228 11.808C105.228 10.8107 105.433 9.92333 105.844 9.146C106.269 8.36867 106.841 7.74533 107.56 7.276C108.279 6.792 109.1 6.47667 110.024 6.33V5.934C110.024 5.65533 109.965 5.41333 109.848 5.208C109.745 5.00267 109.599 4.834 109.408 4.702C109.232 4.55533 109.005 4.394 108.726 4.218C108.418 4.042 108.161 3.85133 107.956 3.646C107.751 3.44067 107.582 3.14733 107.45 2.766C107.333 2.38467 107.274 1.89333 107.274 1.292H110.442C110.442 1.644 110.53 1.952 110.706 2.216C110.882 2.46533 111.139 2.7 111.476 2.92C111.857 3.16933 112.165 3.39667 112.4 3.602C112.635 3.80733 112.84 4.07867 113.016 4.416C113.207 4.75333 113.302 5.15667 113.302 5.626V6.506C114.065 6.71133 114.747 7.06333 115.348 7.562C115.949 8.046 116.419 8.65467 116.756 9.388C117.108 10.1213 117.284 10.928 117.284 11.808C117.284 12.9227 117.02 13.9053 116.492 14.756C115.964 15.592 115.238 16.2373 114.314 16.692C113.39 17.1467 112.363 17.374 111.234 17.374C110.119 17.374 109.107 17.1467 108.198 16.692C107.289 16.2373 106.563 15.5847 106.02 14.734C105.492 13.8833 105.228 12.908 105.228 11.808ZM113.874 11.808C113.874 11.2067 113.764 10.686 113.544 10.246C113.324 9.806 113.016 9.46867 112.62 9.234C112.224 8.99933 111.762 8.882 111.234 8.882C110.735 8.882 110.288 8.99933 109.892 9.234C109.511 9.46867 109.21 9.806 108.99 10.246C108.77 10.686 108.66 11.2067 108.66 11.808C108.66 12.424 108.77 12.9593 108.99 13.414C109.21 13.854 109.511 14.1913 109.892 14.426C110.273 14.6607 110.721 14.778 111.234 14.778C111.762 14.778 112.224 14.6607 112.62 14.426C113.016 14.1913 113.324 13.854 113.544 13.414C113.764 12.9593 113.874 12.424 113.874 11.808ZM118.76 12.05C118.76 11.1847 118.958 10.3267 119.354 9.476H122.654C122.346 10.312 122.192 11.104 122.192 11.852C122.192 12.4093 122.287 12.908 122.478 13.348C122.683 13.788 122.969 14.14 123.336 14.404C123.702 14.6533 124.142 14.778 124.656 14.778C125.169 14.778 125.609 14.6533 125.976 14.404C126.357 14.1547 126.643 13.81 126.834 13.37C127.024 12.93 127.12 12.4313 127.12 11.874C127.12 11.1847 127.01 10.5687 126.79 10.026C126.584 9.48333 126.335 9.02133 126.042 8.64C125.748 8.25867 125.338 7.782 124.81 7.21C124.326 6.682 123.922 6.18333 123.6 5.714C123.292 5.23 123.028 4.62867 122.808 3.91C122.602 3.17667 122.5 2.304 122.5 1.292H125.932C125.932 1.952 126.012 2.53867 126.174 3.052C126.335 3.56533 126.54 4.02733 126.79 4.438C127.054 4.84867 127.384 5.28867 127.78 5.758C128.396 6.506 128.88 7.12933 129.232 7.628C129.584 8.12667 129.892 8.75 130.156 9.498C130.42 10.2313 130.552 11.082 130.552 12.05C130.552 13.062 130.295 13.9787 129.782 14.8C129.268 15.6067 128.557 16.2373 127.648 16.692C126.753 17.1467 125.741 17.374 124.612 17.374C123.482 17.374 122.47 17.1467 121.576 16.692C120.696 16.2373 120.006 15.6067 119.508 14.8C119.009 13.9787 118.76 13.062 118.76 12.05Z" fill="black"/>
</svg>
